<svg xmlns="http://www.w3.org/2000/svg" xmlns:xlink="http://www.w3.org/1999/xlink" width="650" zoomAndPan="magnify" viewBox="0 0 487.5 341.249999" height="455" preserveAspectRatio="xMidYMid meet" version="1.0"><defs><clipPath id="9fea15ae74"><path d="M 97 159 L 390.785156 159 L 390.785156 340 L 97 340 Z M 97 159 " clip-rule="nonzero"/></clipPath><clipPath id="85cf4edcba"><path d="M 96.378906 15 L 390.785156 15 L 390.785156 340 L 96.378906 340 Z M 96.378906 15 " clip-rule="nonzero"/></clipPath></defs><path fill="#472726" d="M 351.300781 139.152344 C 355.96875 110.664062 339.628906 93.402344 339.628906 84.773438 C 342.871094 51.9375 317.003906 30.976562 309.417969 30.066406 C 298.332031 17.671875 265.332031 10.273438 233.371094 21.4375 C 201.472656 32.597656 194.144531 64.785156 179.625 72.960938 C 165.230469 81.007812 169.640625 102.941406 166.074219 114.6875 C 162.507812 126.433594 145.652344 130.457031 145.652344 130.457031 C 145.652344 130.457031 149.996094 132.664062 154.273438 131.820312 C 154.273438 131.820312 139.558594 139.738281 137.613281 151.613281 L 139.882812 154.664062 C 139.882812 154.664062 145.910156 141.683594 157.0625 137.855469 C 147.078125 146.617188 142.214844 159.207031 150.320312 165.824219 C 151.097656 158.945312 162.765625 149.34375 162.765625 149.34375 C 158.035156 159.207031 153.042969 168.617188 157.582031 171.796875 C 162.117188 174.976562 164.257812 176.273438 164.257812 176.273438 C 175.863281 184.96875 190.125 188.730469 204.324219 192.042969 C 209.964844 193.339844 215.734375 194.574219 221.570312 194.3125 C 227.730469 194.054688 233.628906 192.238281 239.722656 191.132812 C 250.289062 189.25 262.609375 188.082031 272.464844 192.429688 C 275.382812 193.730469 285.429688 192.5625 295.285156 192.171875 C 295.089844 187.238281 301.636719 170.496094 301.636719 170.496094 C 301.636719 170.496094 297.035156 191.652344 302.804688 192.105469 C 305.203125 192.171875 307.472656 192.367188 309.484375 192.691406 C 317.199219 193.988281 325.5625 191.132812 331.980469 186.65625 C 342.9375 178.933594 351.496094 164.785156 352.335938 151.417969 C 352.597656 146.8125 352.207031 142.789062 351.300781 139.152344 Z M 349.808594 134.027344 C 345.402344 121.632812 337.167969 111.964844 339.113281 89.964844 C 339.242188 96.582031 351.039062 122.800781 349.808594 134.027344 Z M 349.808594 134.027344 " fill-opacity="1" fill-rule="nonzero"/><g clip-path="url(#9fea15ae74)"><path fill="#8c5d58" d="M 390.003906 319.039062 C 390.003906 319.039062 327.570312 340.582031 246.335938 339.023438 C 165.101562 337.46875 97.222656 308.394531 97.222656 308.394531 C 100.332031 300.414062 107.984375 273.222656 118.226562 247.070312 C 118.226562 247.070312 114.726562 229.550781 119.003906 218.128906 C 124.191406 204.242188 132.8125 199.246094 153.300781 184.320312 C 173.789062 169.394531 184.941406 163.359375 211.003906 168.160156 C 217.617188 169.394531 224.035156 165.890625 230.386719 163.75 C 236.480469 161.738281 242.707031 160.179688 248.996094 159.074219 C 242.835938 175.625 236.804688 191.78125 239.789062 191.261719 C 250.355469 189.382812 262.675781 188.214844 272.527344 192.5625 C 275.445312 193.859375 285.496094 192.691406 295.351562 192.300781 C 295.15625 187.371094 301.703125 170.625 301.703125 170.625 C 301.703125 170.625 297.101562 191.78125 302.871094 192.238281 C 305.269531 192.300781 307.539062 192.496094 309.546875 192.820312 C 317.261719 194.117188 325.625 191.261719 332.046875 186.785156 C 332.5625 186.394531 333.082031 186.007812 333.601562 185.617188 C 335.15625 190.808594 336 196.261719 339.046875 200.738281 C 342.09375 205.28125 350.394531 210.535156 355.125 207.8125 C 361.023438 216.117188 372.953125 236.429688 379.179688 268.292969 C 385.207031 300.152344 390.003906 319.039062 390.003906 319.039062 Z M 390.003906 319.039062 " fill-opacity="1" fill-rule="nonzero"/></g><path fill="#f2aea2" d="M 262.027344 231.042969 C 255.605469 205.667969 223.644531 170.625 210.9375 168.226562 C 210.9375 168.226562 215.863281 142.722656 215.410156 139.414062 C 196.675781 129.09375 196.027344 109.953125 200.238281 103.722656 C 204.453125 97.492188 213.335938 100.414062 213.335938 100.414062 C 211.195312 112.484375 215.476562 124.683594 215.476562 124.683594 C 218.394531 112.417969 228.570312 98.402344 228.570312 98.402344 C 233.824219 97.6875 245.105469 92.367188 245.105469 92.367188 C 245.105469 92.367188 246.53125 94.117188 254.632812 95.480469 C 262.804688 96.84375 276.417969 91.714844 280.566406 87.824219 C 280.566406 87.824219 271.816406 96.84375 265.074219 99.308594 C 275.640625 101.257812 298.980469 86.71875 302.742188 74.519531 C 304.75 89.121094 298.460938 104.953125 296.191406 105.796875 C 310.195312 106.835938 319.792969 96.0625 319.792969 96.0625 C 319.792969 96.0625 315.707031 103.851562 312.269531 104.824219 C 317.132812 108.328125 324.589844 106.1875 324.589844 106.1875 C 324.265625 109.496094 324.136719 113.261719 324.394531 117.347656 C 324.394531 117.347656 313.308594 133.441406 313.242188 138.503906 C 313.179688 143.566406 313.828125 159.269531 298.332031 167.578125 C 282.902344 175.949219 284.910156 180.816406 272.917969 183.476562 C 272.917969 183.476562 272.269531 185.550781 271.230469 187.886719 C 277.261719 204.5 262.15625 231.367188 262.027344 231.042969 Z M 338.59375 250.382812 C 340.277344 245.1875 338.269531 242.789062 338.917969 241.296875 C 339.628906 239.867188 343.585938 232.664062 347.476562 228.253906 C 351.429688 223.839844 353.570312 218.648438 354.28125 213.003906 C 354.996094 207.292969 355.707031 205.539062 353.503906 203.789062 C 351.300781 202.035156 349.355469 201.96875 346.308594 203.527344 C 347.085938 200.023438 350.261719 192.496094 350.328125 189.707031 C 350.457031 186.394531 350.457031 184.707031 346.308594 182.566406 C 346.308594 182.566406 352.597656 168.550781 356.550781 162.90625 C 361.023438 156.546875 361.480469 148.109375 356.164062 148.238281 C 351.6875 148.367188 333.730469 180.816406 332.5 182.503906 C 331.265625 184.191406 326.144531 184.707031 325.300781 182.371094 C 324.460938 180.035156 330.035156 148.691406 328.285156 144.476562 C 326.535156 140.257812 318.300781 142.203125 315.902344 160.699219 C 313.503906 179.191406 313.957031 182.113281 313.242188 184.382812 C 312.789062 188.472656 307.601562 193.988281 304.75 203.59375 C 303.390625 204.175781 300.472656 206.125 299.5625 208.589844 C 298.265625 212.160156 297.8125 225.398438 301.054688 233.898438 C 302.417969 237.402344 303.066406 240.90625 303.257812 244.539062 C 310.195312 254.339844 338.59375 250.382812 338.59375 250.382812 Z M 338.59375 250.382812 " fill-opacity="1" fill-rule="nonzero"/><path fill="#8c5d58" d="M 351.300781 139.152344 C 355.96875 110.664062 339.628906 93.402344 339.628906 84.773438 C 342.871094 51.9375 317.003906 30.976562 309.417969 30.066406 C 305.980469 26.238281 300.472656 22.929688 293.597656 20.464844 C 293.792969 20.59375 311.558594 34.285156 313.890625 46.550781 C 313.890625 46.550781 312.207031 37.140625 311.429688 35.066406 C 311.429688 35.066406 324.003906 42.59375 329.777344 54.53125 C 330.164062 59.660156 328.285156 64.527344 326.015625 65.695312 C 325.238281 66.082031 324.394531 66.148438 323.550781 66.214844 C 318.429688 66.539062 313.113281 65.695312 308.1875 67.058594 C 307.539062 67.25 306.953125 67.445312 306.304688 67.640625 C 306.628906 71.339844 307.148438 78.738281 306.890625 81.59375 C 306.890625 82.242188 306.890625 82.890625 306.824219 83.605469 C 306.761719 84.902344 306.824219 86.65625 308.058594 86.980469 C 308.574219 87.109375 309.09375 86.980469 309.613281 86.847656 C 312.660156 86.136719 315.964844 86.460938 318.820312 87.757812 C 320.632812 88.601562 322.449219 89.898438 324.394531 89.640625 C 325.496094 89.511719 326.46875 88.859375 327.507812 88.535156 C 328.542969 88.210938 329.90625 88.210938 330.554688 89.121094 C 330.554688 89.121094 330.554688 89.1875 330.554688 89.1875 C 328.609375 96.195312 325.5625 102.292969 321.605469 106.835938 C 321.605469 106.835938 327.894531 107.875 332.886719 96.128906 C 332.886719 96.128906 331.785156 110.535156 335.933594 118.84375 C 340.085938 127.148438 352.011719 144.539062 351.363281 156.675781 C 351.363281 156.871094 351.363281 157.0625 351.363281 157.257812 C 351.753906 155.378906 352.078125 153.429688 352.144531 151.546875 C 352.597656 146.8125 352.207031 142.789062 351.300781 139.152344 Z M 349.808594 134.027344 C 345.402344 121.632812 337.167969 111.964844 339.113281 89.964844 C 339.242188 96.582031 351.039062 122.800781 349.808594 134.027344 Z M 217.550781 118.191406 C 218.261719 123.382812 218.78125 130.914062 214.566406 130.914062 C 211.519531 130.914062 211.328125 128.382812 209.316406 125.007812 C 207.761719 122.410156 205.167969 119.816406 204.324219 116.050781 C 202.574219 108.460938 206.398438 102.941406 212.882812 104.566406 C 212.167969 115.078125 215.476562 124.617188 215.476562 124.617188 C 215.996094 122.476562 216.707031 120.335938 217.550781 118.191406 Z M 198.621094 57 Z M 298.851562 69.394531 C 300.019531 69.457031 301.183594 69.261719 302.351562 68.9375 C 301.054688 71.40625 298.398438 76.011719 295.089844 79.582031 C 293.082031 81.65625 290.941406 83.605469 288.347656 84.578125 C 290.8125 82.308594 292.300781 79.320312 292.949219 76.011719 C 289.449219 79.320312 284.523438 82.371094 279.726562 83.019531 C 279.402344 83.085938 279.011719 83.085938 278.753906 82.957031 C 278.363281 82.761719 278.105469 82.371094 277.78125 82.046875 C 276.484375 80.621094 274.214844 80.488281 272.269531 80.816406 C 271.554688 80.945312 270.777344 81.074219 270.066406 80.878906 C 268.507812 80.488281 267.34375 78.476562 265.851562 79.0625 C 268.121094 77.632812 269.871094 74.910156 270.714844 72.378906 C 268.3125 74 265.007812 75.949219 262.351562 77.179688 C 260.40625 78.023438 258.070312 78.804688 256.253906 77.699219 C 255.089844 76.984375 254.441406 75.621094 253.339844 74.78125 C 251.261719 73.15625 248.214844 73.675781 245.945312 72.378906 C 244.78125 71.664062 243.871094 70.496094 242.964844 69.457031 C 241.667969 67.964844 240.175781 66.667969 238.554688 65.566406 C 236.285156 64.007812 233.628906 62.839844 231.8125 60.761719 C 230.386719 59.140625 229.414062 57.0625 227.535156 56.089844 C 226.238281 55.441406 224.617188 55.375 223.320312 54.597656 C 222.347656 54.011719 221.765625 53.039062 220.988281 52.195312 C 219.042969 49.988281 216.125 48.691406 213.207031 48.628906 C 210.289062 48.628906 200.5625 54.792969 198.621094 57 C 201.730469 52.195312 219.300781 26.757812 249.1875 22.34375 C 245.945312 24.226562 242.835938 26.304688 240.632812 29.289062 C 238.425781 32.273438 237.582031 36.558594 239.527344 39.738281 C 242.1875 43.953125 248.605469 44.539062 251.070312 48.886719 C 251.71875 50.054688 252.042969 51.351562 252.753906 52.457031 C 254.3125 55.050781 257.488281 56.15625 260.535156 56.675781 C 263.515625 57.191406 266.695312 57.324219 269.351562 58.75 C 273.5 60.957031 276.03125 65.890625 280.632812 66.925781 C 283.421875 67.578125 286.339844 66.601562 289.125 66.863281 C 292.496094 67.25 295.542969 69.261719 298.851562 69.394531 Z M 298.851562 69.394531 " fill-opacity="1" fill-rule="nonzero"/><path fill="#f3eff9" d="M 238.101562 131.820312 C 237.972656 128.902344 235.703125 124.164062 235.507812 121.242188 C 235.316406 118.191406 235.640625 111.832031 236.546875 111.121094 C 238.816406 108.71875 251.71875 111.121094 254.957031 111.769531 C 256.320312 112.027344 257.550781 112.675781 258.71875 113.457031 C 262.933594 116.179688 268.636719 120.464844 267.667969 125.394531 C 266.628906 130.847656 262.351562 135.453125 259.625 137.011719 C 251.457031 138.179688 243.222656 136.039062 238.296875 132.597656 C 238.230469 132.792969 238.101562 132.082031 238.101562 131.820312 Z M 306.761719 118.515625 C 297.359375 119.359375 289.773438 126.433594 289.773438 126.433594 C 288.738281 127.148438 285.691406 139.023438 291.199219 141.101562 C 296.710938 143.175781 307.734375 142.398438 307.734375 142.398438 C 307.734375 142.398438 312.789062 137.789062 313.632812 135.972656 C 314.476562 134.09375 319.46875 124.878906 319.46875 124.878906 C 319.46875 124.878906 316.097656 117.675781 306.761719 118.515625 Z M 306.761719 118.515625 " fill-opacity="1" fill-rule="nonzero"/><path fill="#472726" d="M 235.316406 119.492188 C 237.714844 122.867188 241.734375 125.070312 246.335938 125.070312 C 250.9375 125.070312 254.957031 122.867188 257.359375 119.492188 C 257.421875 126.238281 254.765625 136.882812 249.773438 136.882812 C 241.992188 135.777344 238.296875 132.535156 238.296875 132.535156 C 235.964844 130.976562 235.25 124.8125 235.316406 119.492188 Z M 301.636719 142.59375 C 306.242188 140.320312 309.289062 124.097656 308.640625 121.308594 L 308.058594 121.179688 C 308.25 122.023438 308.382812 122.867188 308.382812 123.710938 C 308.382812 129.742188 303.519531 134.609375 297.488281 134.609375 C 293.730469 134.609375 290.488281 132.730469 288.476562 129.875 C 288.089844 131.691406 287.894531 134.222656 288.21875 137.335938 C 288.996094 143.632812 301.636719 142.59375 301.636719 142.59375 Z M 286.015625 142.332031 L 283.421875 136.167969 L 283.679688 142.398438 Z M 273.824219 161.996094 C 274.34375 161.996094 274.863281 161.929688 275.316406 161.867188 C 276.613281 161.671875 277.648438 159.59375 277.648438 159.59375 C 277.003906 160.113281 276.160156 160.4375 275.121094 160.570312 C 272.011719 161.023438 265.589844 158.296875 265.589844 158.296875 C 267.667969 160.632812 270.777344 161.996094 273.824219 161.996094 Z M 272.851562 182.695312 C 265.398438 183.863281 241.796875 173.808594 244.519531 175.234375 C 251.070312 178.671875 262.867188 184.191406 270.84375 184.191406 C 271.621094 184.191406 272.335938 184.125 273.046875 184.058594 Z M 266.238281 190.9375 C 266.695312 190.875 270.519531 190.160156 271.878906 188.214844 L 270.777344 187.5 C 269.871094 188.667969 266.238281 190.9375 266.238281 190.9375 Z M 331.074219 196.324219 C 330.292969 195.285156 328.023438 195.871094 324.394531 197.039062 C 323.097656 197.429688 321.671875 197.882812 321.089844 197.882812 C 321.089844 197.882812 321.023438 197.882812 321.023438 197.882812 C 319.011719 197.882812 306.371094 201.710938 304.425781 203.136719 L 305.203125 204.175781 C 307.148438 202.8125 319.53125 199.179688 321.023438 199.179688 C 321.21875 199.179688 321.414062 199.179688 321.605469 199.113281 C 321.21875 200.21875 321.023438 201.839844 322.191406 204.113281 C 322.191406 204.113281 323.226562 199.375 323.421875 198.726562 C 323.8125 198.597656 324.328125 198.464844 324.847656 198.273438 C 326.40625 197.816406 329.582031 196.777344 330.101562 197.101562 C 330.488281 197.621094 331.136719 199.113281 330.75 200.933594 C 330.230469 203.074219 328.414062 204.957031 325.367188 206.511719 C 321.996094 208.265625 319.46875 210.277344 317.328125 212.09375 C 314.476562 214.429688 309.160156 217.871094 309.160156 217.871094 C 312.726562 217.542969 315.253906 215.46875 318.171875 213.066406 C 318.625 212.742188 319.011719 212.351562 319.46875 211.964844 C 319.46875 212.289062 319.46875 212.613281 319.402344 213.003906 C 319.273438 216.832031 316.03125 231.367188 316.03125 231.367188 C 320.246094 224.421875 320.570312 217.027344 320.699219 213.066406 C 320.765625 212.160156 320.765625 211.316406 320.828125 210.925781 C 322.320312 209.824219 323.941406 208.71875 325.949219 207.679688 C 326.597656 207.355469 327.117188 207.03125 327.636719 206.707031 C 327.636719 206.96875 327.636719 207.226562 327.636719 207.488281 C 327.765625 208.980469 328.414062 210.148438 329.515625 210.859375 C 330.292969 211.378906 331.136719 211.640625 332.109375 211.640625 C 332.5625 211.640625 333.015625 211.574219 333.472656 211.445312 C 335.351562 210.925781 337.039062 209.5 338.074219 207.421875 C 338.789062 205.992188 340.019531 203.527344 341.382812 200.996094 L 341.382812 201.0625 C 341.382812 201.0625 341.511719 201.0625 341.703125 201.0625 C 342.417969 201.0625 344.039062 200.933594 345.207031 200.023438 C 345.207031 200.023438 343 199.828125 341.964844 199.765625 C 343.84375 196.128906 345.53125 192.820312 345.53125 192.820312 C 344.492188 194.054688 338.722656 203.136719 336.90625 206.835938 C 336.066406 208.589844 334.703125 209.757812 333.148438 210.210938 C 332.109375 210.472656 331.074219 210.339844 330.292969 209.824219 C 329.644531 209.367188 329.191406 208.65625 329.0625 207.746094 C 328.867188 206.707031 329.128906 205.800781 329.257812 205.605469 C 330.164062 204.761719 330.878906 203.917969 331.398438 202.945312 C 331.65625 203.203125 333.082031 204.304688 333.535156 204.566406 C 334.25 204.957031 336 205.34375 336 205.34375 C 335.609375 204.371094 333.925781 202.683594 331.398438 202.945312 C 331.65625 202.425781 331.914062 201.839844 332.046875 201.320312 C 332.238281 200.609375 332.238281 199.894531 332.175781 199.308594 C 332.175781 199.246094 334.183594 194.117188 337.554688 188.082031 C 340.992188 181.789062 343.195312 182.113281 346.179688 183.347656 L 346.695312 182.113281 C 342.808594 180.554688 340.019531 180.878906 336.453125 187.433594 C 334.183594 191.585938 332.5 195.222656 331.65625 197.234375 C 331.398438 196.777344 331.265625 196.519531 331.074219 196.324219 Z M 335.480469 220.726562 C 337.554688 220.464844 342.027344 218.195312 346.632812 215.664062 C 346.957031 215.859375 347.539062 216.441406 347.992188 216.894531 C 349.226562 218.0625 350.003906 218.84375 350.78125 218.84375 C 350.78125 218.84375 350.847656 218.84375 350.847656 218.84375 C 350.847656 218.84375 349.421875 216.507812 348.902344 215.988281 C 348.382812 215.46875 347.992188 215.207031 347.667969 215.144531 C 348.125 214.882812 348.511719 214.691406 348.964844 214.429688 L 349.746094 213.976562 C 349.746094 213.976562 344.234375 215.597656 341.640625 216.894531 C 339.046875 218.195312 336.519531 219.363281 335.285156 219.492188 C 334.3125 219.621094 333.40625 219.167969 332.886719 218.257812 C 332.433594 217.414062 332.433594 216.375 332.886719 215.726562 C 334.183594 214.039062 342.613281 206.835938 346.632812 204.113281 L 345.917969 203.007812 C 342.027344 205.605469 333.339844 212.9375 331.851562 214.882812 C 331.007812 215.988281 331.007812 217.480469 331.722656 218.84375 C 332.433594 220.074219 333.601562 220.789062 334.960938 220.789062 C 335.15625 220.726562 335.351562 220.726562 335.480469 220.726562 Z M 336.324219 213.910156 C 336.324219 213.910156 336.84375 215.664062 337.039062 215.859375 C 337.230469 216.183594 338.59375 216.765625 338.59375 216.765625 C 338.59375 216.765625 338.59375 216.703125 338.59375 216.636719 C 338.527344 216.183594 338.527344 214.753906 336.324219 213.910156 Z M 322.839844 165.761719 C 321.929688 165.5 318.367188 164.980469 316.613281 165.5 C 316.613281 165.5 318.6875 166.539062 319.726562 166.605469 C 320.894531 166.734375 322.839844 165.761719 322.839844 165.761719 Z M 324.265625 154.988281 C 323.617188 153.949219 319.855469 152.976562 318.105469 153.882812 C 318.105469 153.882812 320.308594 154.726562 321.21875 154.921875 C 322.191406 155.117188 324.265625 154.988281 324.265625 154.988281 Z M 345.140625 172.378906 C 345.984375 172.898438 348.578125 173.351562 348.578125 173.351562 C 346.4375 171.46875 343.261719 169.523438 341.769531 169.457031 C 341.769531 169.457031 343.648438 171.339844 345.140625 172.378906 Z M 354.21875 160.113281 L 355.449219 159.789062 C 355.191406 158.621094 352.273438 156.804688 349.746094 156.933594 C 349.746094 156.933594 351.363281 158.363281 352.078125 158.6875 C 353.246094 159.140625 354.21875 160.113281 354.21875 160.113281 Z M 318.429688 185.035156 C 321.996094 184.902344 325.496094 185.421875 328.867188 186.460938 C 329.191406 186.589844 329.582031 186.71875 329.90625 186.785156 C 331.460938 187.304688 333.082031 187.886719 334.769531 187.886719 C 334.769531 187.886719 331.851562 186.070312 330.292969 185.550781 C 329.90625 185.421875 329.582031 185.292969 329.191406 185.164062 C 327.3125 184.578125 325.367188 184.125 323.355469 183.863281 C 321.738281 183.734375 318.429688 185.035156 318.429688 185.035156 Z M 320.957031 236.625 C 324.003906 240.257812 328.671875 242.527344 333.40625 242.660156 C 333.40625 242.660156 329.453125 240.839844 327.570312 239.996094 C 325.433594 239.023438 320.957031 236.625 320.957031 236.625 Z M 261.894531 238.050781 L 262.414062 237.726562 C 277.003906 228.121094 284.394531 211.835938 282.773438 193.015625 L 281.476562 193.144531 C 283.03125 211.25 275.964844 227.019531 262.15625 236.363281 C 249.253906 220.660156 204.066406 182.046875 169.507812 180.296875 L 169.378906 180.296875 C 169.378906 180.296875 161.925781 180.878906 155.960938 184.058594 C 155.960938 184.058594 160.691406 182.632812 165.164062 181.984375 C 141.046875 193.144531 125.097656 227.019531 117.578125 246.941406 L 118.808594 247.394531 C 124.257812 232.925781 134.175781 211.054688 148.4375 196.066406 C 159.785156 196.777344 168.277344 211.316406 171.195312 220.984375 C 173.527344 228.640625 180.273438 236.167969 185.71875 242.203125 C 189.996094 246.941406 193.691406 251.09375 194.082031 253.820312 C 189.609375 272.769531 181.050781 310.148438 178.519531 331.953125 L 179.816406 332.082031 C 181.566406 317.285156 186.105469 295.15625 190.257812 276.597656 C 192.785156 265.113281 197.324219 242.140625 197.324219 242.140625 L 196.867188 242.074219 C 196.804688 242.398438 196.21875 244.929688 195.378906 248.5 C 195.183594 249.40625 194.925781 250.382812 194.664062 251.484375 C 193.304688 248.695312 190.320312 245.382812 186.753906 241.425781 C 181.4375 235.519531 174.761719 228.121094 172.554688 220.726562 C 169.640625 210.992188 161.210938 196.585938 149.734375 194.960938 C 155.699219 188.992188 162.3125 184.191406 169.703125 181.660156 C 204.195312 183.476562 249.449219 222.476562 261.636719 237.660156 Z M 344.039062 269.070312 C 342.546875 266.28125 341.1875 265.113281 340.472656 264.65625 C 340.539062 263.292969 340.734375 258.425781 341.511719 255.960938 C 342.613281 252.523438 339.046875 249.925781 338.917969 249.863281 L 338.203125 250.898438 C 338.203125 250.898438 341.121094 252.976562 340.34375 255.574219 C 339.371094 258.6875 339.242188 264.789062 339.242188 265.046875 L 339.242188 265.5 L 339.628906 265.695312 C 339.695312 265.695312 345.789062 268.679688 347.863281 290.09375 C 349.9375 312.09375 348.902344 329.355469 348.902344 329.550781 L 350.199219 329.617188 C 350.199219 329.421875 351.234375 312.09375 349.160156 289.964844 C 348.253906 280.230469 346.503906 274.195312 344.753906 270.433594 C 352.207031 260.375 366.472656 243.632812 372.566406 244.539062 L 372.761719 243.242188 C 364.851562 242.074219 348.253906 263.488281 344.039062 269.070312 Z M 255.347656 317.933594 C 261.894531 313.976562 267.277344 308.007812 270.519531 301.0625 C 270.519531 301.0625 265.332031 307.488281 262.609375 310.40625 C 260.273438 312.875 255.347656 317.933594 255.347656 317.933594 Z M 334.574219 261.933594 C 334.636719 261.609375 334.703125 261.28125 334.832031 260.957031 C 335.417969 258.558594 336.066406 256.089844 335.742188 253.5625 C 335.609375 252.652344 335.351562 251.679688 334.960938 250.707031 L 333.730469 251.160156 C 334.054688 252.003906 334.3125 252.910156 334.445312 253.691406 C 334.769531 255.960938 334.121094 258.296875 333.535156 260.570312 C 333.472656 260.894531 333.339844 261.21875 333.277344 261.542969 C 332.691406 264.007812 332.175781 266.800781 332.953125 269.328125 C 330.941406 269.523438 328.414062 269.785156 325.886719 269.914062 C 325.757812 268.875 325.886719 267.835938 326.082031 266.800781 C 326.210938 265.957031 326.40625 265.113281 326.535156 264.269531 C 326.859375 262.582031 327.183594 260.828125 327.3125 259.078125 C 327.636719 255.960938 327.378906 253.367188 326.664062 251.160156 L 325.433594 251.550781 C 326.144531 253.625 326.339844 256.027344 326.015625 258.945312 C 325.820312 260.632812 325.496094 262.320312 325.238281 264.007812 C 325.109375 264.851562 324.914062 265.695312 324.785156 266.539062 C 324.589844 267.640625 324.460938 268.8125 324.589844 269.914062 C 322.320312 269.980469 320.117188 269.980469 318.367188 269.785156 C 317.71875 269.71875 317.132812 269.652344 316.484375 269.589844 C 315.640625 267.707031 315.707031 265.566406 315.964844 263.8125 C 316.226562 261.738281 316.679688 259.660156 317.328125 257.648438 C 317.457031 257.257812 317.585938 256.804688 317.71875 256.414062 C 318.300781 254.664062 318.949219 252.910156 318.949219 250.964844 L 317.652344 250.964844 C 317.652344 252.652344 317.070312 254.273438 316.484375 255.960938 C 316.355469 256.351562 316.226562 256.804688 316.03125 257.195312 C 315.316406 259.269531 314.863281 261.414062 314.605469 263.621094 C 314.410156 265.304688 314.28125 267.382812 314.929688 269.328125 C 311.6875 268.8125 308.574219 267.96875 306.113281 266.929688 C 305.59375 266.019531 305.464844 264.980469 305.527344 264.269531 C 305.59375 263.164062 305.851562 262.0625 306.113281 260.957031 L 307.863281 254.210938 C 308.1875 252.976562 308.511719 251.679688 308.574219 250.382812 L 308.574219 250.121094 C 308.574219 249.539062 308.640625 248.953125 308.898438 248.628906 L 307.925781 247.71875 C 307.277344 248.371094 307.277344 249.34375 307.214844 250.054688 L 307.214844 250.316406 C 307.148438 251.550781 306.824219 252.71875 306.566406 253.886719 L 304.816406 260.632812 C 304.492188 261.800781 304.230469 262.96875 304.167969 264.203125 C 304.167969 264.722656 304.167969 265.4375 304.363281 266.148438 C 302.742188 265.304688 301.445312 264.332031 300.664062 263.292969 C 300.535156 263.035156 299.046875 260.246094 300.277344 257.066406 C 300.859375 255.636719 300.988281 253.5625 301.183594 251.613281 C 301.445312 248.628906 301.636719 245.449219 303.257812 245.058594 L 302.933594 243.828125 C 300.40625 244.410156 300.148438 248.042969 299.886719 251.484375 C 299.757812 253.367188 299.5625 255.3125 299.109375 256.609375 C 297.8125 259.921875 298.980469 262.839844 299.433594 263.683594 C 299.046875 264.789062 298.398438 265.632812 297.554688 266.734375 C 295.414062 269.523438 292.171875 273.808594 290.097656 286.722656 C 288.800781 294.898438 286.015625 303.140625 283.289062 311.121094 C 279.984375 320.984375 276.808594 330.265625 276.808594 338.441406 L 278.105469 338.441406 C 278.105469 330.523438 281.214844 321.308594 284.523438 311.574219 C 287.246094 303.527344 290.035156 295.222656 291.328125 286.980469 C 293.339844 274.328125 296.453125 270.304688 298.527344 267.578125 C 299.238281 266.667969 299.824219 265.890625 300.277344 264.917969 C 301.378906 266.019531 303.066406 267.058594 305.074219 267.96875 C 309.871094 270.042969 316.746094 271.40625 323.355469 271.40625 C 328.480469 271.40625 333.40625 270.628906 337.101562 268.8125 C 337.101562 268.8125 335.871094 269.003906 334.054688 269.199219 C 333.535156 266.929688 333.988281 264.398438 334.574219 261.933594 Z M 220.664062 324.617188 C 205.945312 323.449219 189.671875 316.378906 189.671875 316.378906 C 201.601562 325.59375 220.664062 324.617188 220.664062 324.617188 Z M 220.664062 324.617188 " fill-opacity="1" fill-rule="nonzero"/><g clip-path="url(#85cf4edcba)"><path fill="#110c0e" d="M 332.757812 143.566406 C 334.898438 154.535156 337.101562 165.890625 333.988281 172.183594 C 333.988281 172.183594 334.445312 164.136719 333.988281 159.074219 C 333.535156 154.339844 332.5 149.015625 331.460938 143.761719 C 329.710938 134.675781 327.894531 125.332031 329.128906 119.035156 C 329.128906 119.101562 331.007812 134.609375 332.757812 143.566406 Z M 345.53125 125.527344 C 341.316406 116.246094 336.972656 106.707031 338.464844 89.964844 L 339.761719 90.03125 C 339.824219 92.496094 341.640625 98.011719 343.78125 104.4375 C 347.085938 114.558594 351.234375 127.148438 350.523438 134.15625 L 350.199219 137.011719 L 349.226562 134.351562 C 348.125 131.300781 346.890625 128.511719 345.53125 125.527344 Z M 346.695312 125.007812 C 347.539062 126.890625 348.382812 128.769531 349.160156 130.652344 C 348.640625 123.644531 345.269531 113.324219 342.484375 104.824219 C 341.316406 101.191406 340.214844 97.882812 339.4375 95.15625 C 339.242188 108.523438 343 116.894531 346.695312 125.007812 Z M 230.777344 105.667969 C 237.777344 109.042969 267.925781 103.851562 267.667969 125.394531 C 266.304688 122.085938 262.609375 118.90625 257.683594 116.503906 C 258.523438 121.113281 257.164062 130.003906 254.246094 134.480469 C 253.664062 135.390625 253.015625 136.039062 252.367188 136.558594 C 252.949219 136.621094 253.597656 136.621094 254.179688 136.621094 C 256.902344 136.621094 259.496094 136.945312 259.496094 136.945312 C 259.496094 136.945312 257.035156 137.921875 254.3125 137.921875 C 252.691406 137.921875 250.9375 137.789062 249.511719 137.464844 C 241.925781 136.429688 238.167969 133.378906 237.777344 132.988281 C 233.953125 130.328125 234.34375 117.675781 234.992188 113.066406 C 234.859375 113.066406 234.796875 113.066406 234.667969 113.132812 C 232.589844 111.507812 230.777344 105.667969 230.777344 105.667969 Z M 256.644531 121.371094 C 255.089844 123.058594 252.042969 125.527344 247.632812 125.851562 C 247.242188 126.890625 246.335938 128.574219 244.714844 128.511719 C 243.222656 128.382812 242.1875 126.695312 242.316406 125.332031 C 239.203125 124.421875 237.195312 122.734375 236.027344 121.4375 C 236.15625 126.109375 236.933594 130.847656 238.6875 132.015625 L 238.75 132.082031 C 238.816406 132.082031 242.382812 135.195312 249.835938 136.234375 C 251.070312 136.234375 252.234375 135.390625 253.273438 133.765625 C 255.28125 130.652344 256.386719 125.589844 256.644531 121.371094 Z M 235.964844 119.296875 C 236.417969 120.011719 239.203125 123.902344 245.167969 124.550781 C 251.976562 125.265625 255.996094 120.269531 256.710938 119.296875 C 256.710938 117.867188 256.515625 116.699219 256.253906 115.792969 C 250.484375 113.324219 243.289062 112.027344 236.417969 112.871094 C 236.15625 114.558594 235.964844 116.832031 235.964844 119.296875 Z M 390.785156 319.492188 L 390.199219 319.6875 C 389.617188 319.882812 330.941406 339.804688 254.503906 339.804688 C 251.78125 339.804688 249.058594 339.804688 246.335938 339.738281 C 165.945312 338.246094 97.675781 309.367188 96.960938 309.042969 L 96.378906 308.785156 L 96.636719 308.199219 C 97.675781 305.410156 99.425781 300.089844 101.566406 293.40625 C 105.519531 280.945312 110.964844 263.878906 117.511719 247.070312 C 117.125 245.058594 114.273438 228.964844 118.355469 217.933594 C 123.023438 205.410156 130.414062 200.023438 146.625 188.34375 C 148.570312 186.914062 150.644531 185.421875 152.847656 183.800781 C 156.609375 181.074219 159.980469 178.671875 163.285156 176.53125 C 162.3125 175.949219 160.304688 174.585938 157.191406 172.445312 C 152.71875 169.265625 156.476562 161.023438 160.757812 152.132812 C 157.386719 155.3125 151.484375 161.410156 150.96875 166.019531 L 150.835938 167.1875 L 149.929688 166.410156 C 147.140625 164.136719 145.652344 161.023438 145.585938 157.390625 C 145.519531 152.003906 148.632812 145.578125 153.882812 139.996094 C 145.261719 144.800781 140.464844 154.859375 140.398438 154.921875 L 139.945312 155.894531 L 136.898438 151.742188 L 136.964844 151.484375 C 138.453125 142.203125 147.335938 135.390625 151.617188 132.597656 C 148.308594 132.46875 145.519531 131.042969 145.328125 130.976562 L 143.769531 130.199219 L 145.519531 129.808594 C 145.714844 129.742188 162.054688 125.785156 165.425781 114.496094 C 166.460938 110.988281 166.851562 106.449219 167.175781 101.710938 C 168.019531 90.679688 168.992188 78.152344 179.234375 72.378906 C 184.617188 69.394531 189.023438 62.902344 194.144531 55.441406 C 202.574219 43.113281 213.078125 27.796875 233.109375 20.789062 C 264.359375 9.886719 297.8125 16.375 309.675781 29.417969 C 314.085938 30.132812 322.386719 36.039062 328.996094 44.992188 C 335.09375 53.167969 341.964844 66.734375 340.148438 84.773438 C 340.148438 87.304688 341.835938 90.9375 343.910156 95.480469 C 348.316406 105.085938 354.996094 119.621094 351.820312 139.089844 C 352.597656 142.527344 352.984375 146.03125 352.855469 149.730469 C 354.152344 148.367188 355.253906 147.589844 356.03125 147.589844 C 357.71875 147.523438 359.015625 148.304688 359.792969 149.730469 C 361.414062 152.78125 360.183594 158.621094 356.941406 163.292969 C 353.503906 168.226562 348.253906 179.648438 347.019531 182.308594 C 350.910156 184.449219 351.039062 186.394531 350.847656 189.769531 C 350.78125 191.523438 349.679688 194.765625 348.578125 197.945312 C 347.992188 199.570312 347.476562 201.125 347.152344 202.359375 C 349.746094 201.320312 351.6875 201.644531 353.765625 203.269531 C 355.253906 204.4375 355.578125 205.667969 355.515625 207.617188 C 360.699219 214.949219 373.085938 235.195312 379.503906 268.160156 C 385.597656 299.636719 390.394531 318.714844 390.460938 318.910156 Z M 335.417969 178.933594 C 333.988281 181.335938 333.277344 182.566406 333.082031 182.890625 C 332.109375 184.253906 329.515625 184.839844 327.636719 184.578125 C 326.144531 184.382812 325.109375 183.671875 324.71875 182.632812 C 324.328125 181.59375 324.847656 177.050781 325.949219 168.421875 C 327.117188 159.402344 328.671875 147.070312 327.703125 144.734375 C 327.246094 143.695312 326.40625 143.113281 325.238281 143.308594 C 322.839844 143.632812 318.234375 147.65625 316.484375 160.828125 C 315.058594 171.730469 314.605469 177.050781 314.410156 180.296875 C 314.214844 182.503906 314.152344 183.539062 313.890625 184.515625 C 313.632812 186.527344 312.402344 188.730469 310.84375 191.523438 C 309.09375 194.703125 306.890625 198.660156 305.332031 203.789062 L 305.269531 204.046875 L 305.011719 204.175781 C 303.777344 204.695312 301.054688 206.511719 300.210938 208.785156 C 299.046875 211.964844 298.398438 225.007812 301.703125 233.636719 C 303 236.949219 303.714844 240.453125 303.972656 244.28125 C 310.324219 252.78125 334.636719 250.121094 338.140625 249.730469 C 338.980469 246.875 338.65625 244.996094 338.398438 243.566406 C 338.203125 242.527344 338.074219 241.75 338.464844 240.972656 C 339.113281 239.738281 343.066406 232.339844 347.152344 227.796875 C 350.847656 223.644531 353.050781 218.648438 353.828125 212.871094 C 353.957031 211.964844 354.089844 211.121094 354.152344 210.40625 C 354.738281 206.449219 354.800781 205.476562 353.308594 204.304688 C 351.300781 202.75 349.613281 202.683594 346.828125 204.113281 L 345.59375 204.761719 L 345.917969 203.398438 C 346.242188 201.90625 346.957031 199.765625 347.734375 197.558594 C 348.773438 194.636719 349.875 191.261719 349.9375 189.707031 C 350.070312 186.589844 350.132812 185.164062 346.242188 183.152344 L 345.726562 182.890625 L 345.984375 182.308594 C 346.242188 181.722656 352.335938 168.226562 356.292969 162.515625 C 359.273438 158.296875 360.441406 152.910156 359.082031 150.316406 C 358.5625 149.34375 357.652344 148.824219 356.488281 148.886719 C 354.089844 148.953125 347.019531 159.074219 335.417969 178.933594 Z M 174.4375 156.738281 C 180.402344 150.183594 187.144531 142.789062 189.738281 134.417969 C 189.996094 133.636719 190.257812 132.792969 190.449219 131.886719 C 192.070312 126.109375 195.246094 115.597656 195.246094 115.597656 C 194.792969 120.074219 192.847656 128.511719 190.96875 134.804688 C 188.3125 143.5 181.4375 151.027344 175.34375 157.648438 C 169.640625 163.878906 164.257812 169.847656 163.675781 175.363281 C 164.0625 175.625 164.324219 175.753906 164.453125 175.882812 C 178.714844 166.796875 189.996094 163.878906 210.417969 167.511719 C 211.78125 160.242188 214.890625 143.308594 214.828125 139.800781 C 203.289062 133.3125 199.527344 123.96875 198.296875 118.972656 C 196.867188 112.9375 197.386719 106.835938 199.722656 103.398438 C 203.417969 97.945312 210.484375 99.050781 212.753906 99.632812 C 214.503906 84.1875 225.785156 63.617188 225.847656 63.359375 C 225.847656 63.359375 215.605469 84.773438 213.984375 99.957031 L 214.050781 99.957031 L 213.917969 100.542969 C 212.363281 109.367188 214.242188 118.324219 215.347656 122.347656 C 218.847656 110.664062 227.859375 98.207031 227.921875 98.011719 L 228.117188 97.816406 L 228.183594 97.816406 C 231.75 94.832031 241.410156 77.632812 241.410156 77.632812 C 241.085938 78.285156 234.40625 92.171875 230.257812 97.425781 C 235.769531 96 244.457031 91.910156 244.652344 91.847656 C 254.503906 87.109375 262.738281 77.765625 262.738281 77.765625 C 262.480469 78.152344 255.800781 87.5 246.207031 92.558594 C 247.242188 93.144531 249.578125 94.117188 254.503906 94.894531 C 258.523438 93.859375 266.046875 89.703125 266.046875 89.703125 C 265.785156 89.898438 261.441406 93.210938 257.488281 95.089844 C 265.460938 95.027344 276.484375 90.742188 280.050781 87.367188 L 280.4375 87.757812 L 280.113281 87.304688 C 285.042969 83.996094 288.929688 81.203125 288.929688 81.203125 C 288.800781 81.332031 285.949219 84.96875 280.890625 88.34375 C 280.242188 89.054688 273.695312 95.609375 267.667969 98.855469 C 278.492188 98.335938 298.589844 85.550781 302.09375 74.324219 L 302.933594 71.535156 L 303.324219 74.453125 C 305.011719 86.914062 300.730469 100.996094 297.683594 105.214844 C 310.390625 105.410156 319.207031 95.738281 319.273438 95.675781 L 322.773438 91.78125 L 320.308594 96.390625 C 320.179688 96.714844 316.875 102.878906 313.566406 104.953125 C 318.042969 107.355469 324.199219 105.667969 324.328125 105.605469 C 328.738281 104.242188 335.480469 90.742188 335.480469 90.742188 C 335.675781 91.261719 334.574219 93.792969 333.601562 95.804688 C 331.851562 99.308594 328.542969 105.277344 325.171875 106.707031 C 324.847656 110.339844 324.785156 113.910156 324.976562 117.347656 L 324.976562 117.542969 L 324.847656 117.738281 C 324.71875 117.867188 313.890625 133.703125 313.828125 138.503906 L 313.828125 139.152344 C 313.828125 144.863281 313.761719 159.984375 298.589844 168.160156 C 291.652344 171.925781 288.28125 174.910156 285.558594 177.375 C 282.253906 180.359375 279.855469 182.503906 273.371094 183.996094 C 273.175781 184.644531 272.59375 186.203125 271.878906 187.886719 C 272.335938 189.25 272.660156 190.679688 272.851562 192.171875 C 275.058594 192.886719 280.890625 192.5625 286.984375 192.171875 C 289.449219 192.042969 291.914062 191.847656 294.441406 191.78125 C 294.765625 186.136719 300.601562 171.144531 300.859375 170.496094 L 302.09375 170.886719 C 301.121094 175.363281 299.109375 187.757812 301.507812 191.003906 C 301.832031 191.457031 302.222656 191.652344 302.675781 191.71875 C 305.074219 191.78125 307.148438 191.976562 308.964844 192.238281 C 309.160156 191.847656 309.417969 191.457031 309.613281 191.070312 C 311.105469 188.34375 312.335938 186.203125 312.464844 184.449219 L 312.464844 184.320312 C 312.726562 183.476562 312.789062 182.4375 312.984375 180.296875 C 313.242188 177.050781 313.632812 171.664062 315.125 160.761719 C 316.808594 147.71875 321.476562 142.527344 324.976562 142.140625 C 326.664062 141.945312 328.15625 142.789062 328.804688 144.410156 C 329.777344 146.875 328.671875 156.414062 327.117188 168.746094 C 326.339844 174.714844 325.496094 181.464844 325.820312 182.371094 C 326.082031 183.152344 327.117188 183.410156 327.703125 183.476562 C 329.320312 183.671875 331.332031 183.152344 331.914062 182.308594 C 332.109375 181.984375 333.015625 180.425781 334.183594 178.480469 C 340.734375 167.316406 347.085938 156.804688 351.558594 151.417969 C 351.820312 147.265625 351.496094 143.308594 350.585938 139.414062 L 350.585938 139.152344 C 353.765625 120.011719 347.410156 106.253906 342.808594 96.195312 C 340.667969 91.523438 338.917969 87.757812 338.917969 84.835938 C 342.027344 53.234375 318.625 33.765625 310.519531 31.105469 C 312.140625 34.933594 312.660156 40.125 312.660156 40.386719 C 312.660156 40.386719 310.78125 34.222656 308.835938 30.585938 C 297.488281 17.671875 264.554688 11.3125 233.695312 22.085938 C 214.050781 28.964844 203.675781 44.085938 195.378906 56.285156 C 190.191406 63.878906 185.652344 70.429688 180.078125 73.609375 C 170.417969 79.0625 169.445312 91.199219 168.667969 101.90625 C 168.277344 106.707031 167.953125 111.3125 166.851562 114.949219 C 163.933594 124.683594 152.394531 129.226562 147.855469 130.652344 C 149.476562 131.171875 151.941406 131.753906 154.273438 131.300781 L 158.488281 130.457031 L 154.664062 132.535156 C 154.53125 132.597656 140.398438 140.320312 138.390625 151.613281 L 139.816406 153.558594 C 141.4375 150.445312 147.207031 140.777344 156.800781 137.402344 C 159.785156 134.742188 162.765625 132.597656 165.683594 130.457031 C 168.992188 128.058594 172.039062 125.851562 174.566406 123.253906 C 177.417969 120.335938 182.085938 112.484375 182.085938 112.484375 C 179.753906 121.828125 173.59375 126.304688 166.398438 131.496094 C 163.027344 133.960938 159.523438 136.492188 156.089844 139.738281 C 150.320312 145.320312 146.816406 151.9375 146.949219 157.386719 C 147.011719 160.242188 147.984375 162.710938 149.996094 164.65625 C 151.808594 157.777344 161.988281 149.277344 162.441406 148.953125 L 164.710938 147.070312 L 162.574219 151.484375 C 158.292969 160.375 154.207031 168.746094 157.96875 171.40625 C 159.914062 172.769531 161.40625 173.808594 162.507812 174.519531 C 163.414062 168.808594 168.535156 163.164062 174.4375 156.738281 Z M 211.714844 167.707031 C 224.550781 171.082031 255.089844 204.175781 262.285156 229.421875 C 265.332031 223.96875 275.707031 201.96875 270.714844 188.019531 L 270.648438 187.757812 L 270.777344 187.5 C 271.75 185.226562 272.398438 183.152344 272.398438 183.152344 L 272.527344 182.761719 L 272.917969 182.695312 C 279.335938 181.269531 281.539062 179.324219 284.910156 176.273438 C 287.699219 173.808594 291.136719 170.691406 298.203125 166.863281 C 312.660156 159.074219 312.726562 144.476562 312.726562 139.023438 L 312.726562 138.375 C 312.726562 135.519531 315.964844 129.550781 318.949219 124.617188 C 317.523438 124.164062 313.957031 123.191406 309.484375 122.671875 C 309.417969 123.710938 309.289062 125.007812 309.03125 126.5 C 309.03125 126.5625 309.03125 126.5625 309.03125 126.628906 C 308.1875 131.753906 306.242188 138.828125 303.519531 141.878906 C 306.175781 142.007812 307.863281 142.398438 307.863281 142.398438 C 307.863281 142.398438 305.398438 143.175781 301.769531 143.175781 C 301.574219 143.175781 300.796875 143.242188 299.695312 143.242188 C 295.933594 143.242188 288.347656 142.59375 287.765625 137.335938 C 287.050781 130.847656 288.671875 126.695312 289.386719 125.980469 C 289.449219 125.914062 294.765625 120.074219 299.757812 118.777344 C 305.59375 115.855469 313.566406 114.300781 322.191406 119.425781 C 322.96875 118.257812 323.550781 117.414062 323.8125 117.023438 C 323.617188 113.714844 323.679688 110.339844 323.941406 106.902344 C 322.96875 107.097656 321.21875 107.355469 319.273438 107.355469 C 321.996094 109.238281 323.941406 112.027344 323.164062 112.289062 C 323.164062 112.289062 319.597656 110.339844 315.1875 109.820312 C 310.78125 109.300781 297.425781 111.3125 296.257812 111.574219 C 297.488281 109.300781 306.953125 106.1875 312.660156 105.667969 C 312.402344 105.539062 312.140625 105.34375 311.945312 105.214844 L 310.84375 104.4375 L 312.140625 104.046875 C 313.699219 103.59375 315.511719 101.449219 317.003906 99.308594 C 312.917969 102.488281 305.464844 106.902344 296.191406 106.253906 L 293.210938 106.058594 L 295.996094 105.019531 C 297.75 104.371094 303.390625 90.742188 302.417969 77.050781 C 296.453125 89.25 274.796875 101.644531 265.007812 99.828125 L 262.675781 99.375 L 264.878906 98.53125 C 268.25 97.296875 272.203125 94.3125 275.1875 91.78125 C 269.09375 94.636719 260.46875 96.972656 254.503906 96 C 254.375 96 254.246094 95.933594 254.117188 95.933594 C 261.765625 99.113281 271.039062 105.410156 269.609375 106.640625 C 269.609375 106.640625 255.28125 100.347656 249.125 99.050781 C 242.964844 97.75 233.371094 98.917969 230.777344 100.347656 C 231.035156 98.789062 240.890625 94.117188 246.789062 94.050781 C 245.816406 93.664062 245.296875 93.339844 244.976562 93.078125 C 242.964844 93.988281 233.824219 98.207031 228.960938 98.984375 C 227.664062 100.800781 218.78125 113.652344 216.125 124.8125 L 215.605469 126.953125 L 214.890625 124.878906 C 214.828125 124.746094 210.742188 112.742188 212.625 100.867188 C 210.679688 100.414062 204.128906 99.179688 200.824219 104.046875 C 199.074219 106.640625 198.035156 112.15625 199.589844 118.582031 C 200.757812 123.449219 204.453125 132.535156 215.800781 138.765625 L 216.058594 138.894531 L 216.125 139.21875 C 216.511719 142.398438 212.492188 163.683594 211.714844 167.707031 Z M 295.285156 134.9375 C 292.042969 134.285156 290.035156 132.597656 288.929688 131.367188 C 288.738281 132.925781 288.671875 134.9375 288.929688 137.207031 C 289.515625 142.527344 300.148438 142.007812 301.445312 141.878906 C 303.714844 140.644531 305.65625 135.453125 306.824219 130.585938 C 305.203125 132.535156 302.742188 134.15625 300.148438 134.804688 C 299.953125 135.648438 299.433594 136.945312 298.460938 137.402344 C 297.035156 138.117188 295.285156 137.011719 295.285156 134.9375 Z M 307.667969 126.304688 C 307.925781 124.8125 308.058594 123.515625 308.058594 122.605469 C 303 122.152344 297.101562 122.539062 292.109375 125.070312 C 291.007812 126.109375 290.226562 126.890625 290.226562 126.890625 C 289.96875 127.148438 289.578125 128.121094 289.191406 129.679688 C 289.710938 130.457031 291.847656 133.183594 296.320312 133.832031 C 301.445312 134.546875 306.824219 130.328125 307.667969 126.304688 Z M 389.226562 318.648438 C 388.382812 315.210938 383.910156 296.910156 378.398438 268.421875 C 372.371094 237.402344 361.023438 217.738281 355.449219 209.5625 C 355.382812 209.886719 355.382812 210.210938 355.320312 210.601562 C 355.191406 211.316406 355.125 212.160156 354.996094 213.066406 C 354.21875 219.101562 351.882812 224.359375 348.058594 228.707031 C 344.105469 233.183594 340.214844 240.386719 339.566406 241.621094 C 339.371094 241.945312 339.5 242.59375 339.628906 243.371094 C 339.890625 244.929688 340.34375 247.199219 339.242188 250.574219 L 339.113281 250.964844 L 338.722656 251.03125 C 338.203125 251.09375 332.691406 251.875 326.015625 251.875 C 317.394531 251.875 306.761719 250.640625 302.804688 244.996094 L 302.675781 244.863281 L 302.675781 244.671875 C 302.480469 240.839844 301.769531 237.53125 300.535156 234.222656 C 297.292969 225.785156 297.617188 212.289062 299.046875 208.460938 C 299.953125 205.992188 302.609375 204.046875 304.296875 203.203125 C 305.464844 199.308594 307.085938 196.066406 308.511719 193.339844 C 306.890625 193.078125 305.007812 192.949219 302.804688 192.886719 C 301.898438 192.820312 301.25 192.429688 300.664062 191.652344 C 298.785156 189.121094 299.175781 182.632812 299.824219 177.503906 C 298.007812 182.695312 295.867188 189.511719 295.933594 192.300781 L 295.933594 192.949219 L 295.285156 192.949219 C 292.5625 193.078125 289.839844 193.210938 287.246094 193.40625 C 283.550781 193.597656 280.242188 193.859375 277.585938 193.859375 C 275.769531 193.859375 274.277344 193.792969 273.175781 193.535156 C 274.667969 209.628906 263.515625 230.457031 262.542969 231.496094 L 262.285156 231.757812 L 261.507812 231.5625 L 261.378906 231.171875 C 254.957031 205.734375 223.191406 171.210938 210.808594 168.808594 C 185.265625 164.136719 174.308594 169.785156 153.625 184.902344 C 151.421875 186.527344 149.347656 188.019531 147.402344 189.445312 C 131.386719 200.933594 124.125 206.1875 119.589844 218.386719 C 115.4375 229.550781 118.808594 246.8125 118.808594 247.007812 L 118.875 247.199219 L 118.808594 247.394531 C 112.199219 264.203125 106.75 281.269531 102.796875 293.792969 C 100.785156 300.089844 99.164062 305.152344 98.0625 308.136719 C 104.871094 310.925781 170.09375 337.011719 246.335938 338.441406 C 322.449219 339.867188 382.808594 320.726562 389.226562 318.648438 Z M 389.226562 318.648438 " fill-opacity="1" fill-rule="nonzero"/></g></svg>