<svg xmlns="http://www.w3.org/2000/svg" xmlns:xlink="http://www.w3.org/1999/xlink" width="650" zoomAndPan="magnify" viewBox="0 0 487.5 341.249999" height="455" preserveAspectRatio="xMidYMid meet" version="1.0"><defs><clipPath id="bdcaa8e1fb"><path d="M 94.261719 0 L 393 0 L 393 340 L 94.261719 340 Z M 94.261719 0 " clip-rule="nonzero"/></clipPath></defs><path fill="#472726" d="M 390.9375 253.023438 C 391.007812 245.15625 388.160156 237.289062 383.214844 231.183594 C 382.398438 225.488281 380.433594 220.0625 376.640625 215.792969 C 374.269531 213.078125 371.285156 211.042969 368.371094 208.875 C 364.035156 205.6875 359.765625 202.226562 356.105469 198.226562 C 355.359375 194.292969 354.816406 190.292969 353.9375 186.425781 C 351.769531 177.203125 346.957031 168.660156 340.316406 161.878906 C 339.570312 155.367188 338.148438 148.992188 334.828125 143.296875 C 331.710938 137.871094 327.035156 133.53125 323.035156 128.714844 C 320.867188 126.136719 318.832031 123.359375 317.34375 120.375 C 318.699219 109.117188 315.785156 101.046875 306.09375 85.3125 C 296.539062 69.714844 298.503906 58.59375 295.316406 41.976562 C 291.996094 25.429688 271.800781 1.492188 238.1875 1.015625 C 204.574219 0.542969 185.398438 19.597656 178.28125 27.601562 C 170.894531 32.28125 158.96875 55.949219 153.207031 60.015625 C 153.207031 60.015625 155.578125 61.78125 158.019531 60.695312 C 157.003906 63.339844 155.714844 69.648438 155.308594 72.425781 C 155.242188 72.699219 155.578125 72.835938 155.714844 72.632812 C 156.867188 71.003906 158.96875 68.765625 159.917969 67.75 C 155.917969 72.222656 154.632812 85.3125 155.851562 91.28125 L 155.105469 97.046875 L 156.933594 96.773438 C 158.765625 103.757812 157.207031 111.558594 152.867188 117.320312 C 151.175781 119.558594 149.074219 121.457031 147.652344 123.832031 C 145.144531 127.96875 144.804688 132.988281 145.617188 137.734375 C 143.042969 144.378906 142.839844 151.910156 145.074219 158.621094 C 146.703125 163.574219 149.683594 168.253906 151.308594 173.132812 C 150.160156 175.507812 148.597656 177.8125 146.90625 179.917969 C 143.246094 184.460938 138.976562 188.394531 135.589844 193.207031 C 131.046875 199.71875 128.539062 207.585938 128.472656 215.453125 L 137.6875 221.417969 C 144.941406 235.320312 231.820312 286.117188 359.496094 315.753906 C 370.066406 312.292969 380.910156 308.292969 392.023438 303.816406 C 386.128906 291.609375 390.871094 261.972656 390.9375 253.023438 Z M 152.867188 169.269531 C 152.125 167.234375 151.175781 165.269531 150.226562 163.371094 C 148.125 158.960938 145.890625 154.484375 145.550781 149.601562 C 145.414062 147.296875 145.683594 144.855469 146.835938 142.820312 C 148.058594 146.753906 149.75 150.484375 151.242188 154.351562 C 152.460938 157.535156 153.546875 160.859375 153.613281 164.320312 C 153.613281 165.945312 153.34375 167.640625 152.867188 169.269531 Z M 321.410156 144.652344 C 317.75 139.496094 316.800781 132.242188 316.9375 125.527344 C 318.902344 128.917969 321.207031 132.105469 323.847656 135.023438 C 325.609375 137.054688 327.574219 138.957031 329.132812 141.191406 C 331.4375 144.515625 332.863281 148.382812 333.945312 152.316406 C 334.421875 154.011719 334.828125 155.636719 335.164062 157.332031 C 330.285156 153.332031 325.066406 149.738281 321.410156 144.652344 Z M 360.035156 209.6875 C 359.5625 208.941406 359.15625 208.128906 358.816406 207.382812 C 364.035156 211.449219 369.796875 215.113281 373.929688 220.199219 C 375.214844 221.757812 376.300781 223.523438 377.25 225.351562 C 371.148438 220.402344 364.101562 216.402344 360.035156 209.6875 Z M 360.035156 209.6875 " fill-opacity="1" fill-rule="nonzero"/><path fill="#8c5d58" d="M 359.5625 315.820312 C 191.226562 371.566406 95.199219 308.089844 95.199219 308.089844 C 100.417969 268.484375 129.625 208.601562 137.890625 204.058594 C 147.988281 197.414062 168.386719 192.125 179.636719 188.734375 L 258.179688 184.324219 C 261.027344 191.988281 267.53125 200.261719 277.019531 201.074219 C 290.304688 202.160156 294.640625 184.867188 299.046875 184.867188 C 309.074219 187.375 318.425781 191.308594 323.375 195.039062 C 333.539062 202.636719 345.667969 222.84375 350.820312 251.257812 C 356.988281 282.863281 359.5625 315.820312 359.5625 315.820312 Z M 266.246094 183.917969 L 263.195312 184.121094 C 265.023438 188.597656 267.9375 193.140625 272.074219 195.445312 C 269.363281 192.734375 267.601562 188.257812 266.246094 183.917969 Z M 287.1875 182.765625 L 269.023438 183.78125 C 271.058594 189.613281 274.714844 195.851562 280.882812 196.464844 C 286.441406 194.226562 289.625 185.816406 294.574219 183.917969 C 292.132812 183.441406 289.625 183.035156 287.1875 182.765625 Z M 287.1875 182.765625 " fill-opacity="1" fill-rule="nonzero"/><path fill="#f2aea2" d="M 271.191406 199.582031 C 253.097656 218.707031 225.246094 248.75 217.453125 259.601562 C 217.453125 259.601562 174.894531 197.210938 179.636719 188.800781 C 179.636719 188.800781 202.070312 182.425781 205.863281 179.304688 C 209.457031 176.390625 206.878906 163.640625 206.878906 163.640625 C 206.878906 163.640625 204.574219 163.4375 201.390625 162.894531 C 195.089844 161.808594 171.640625 139.703125 170.828125 133.664062 C 170.285156 129.394531 166.152344 107.964844 163.914062 96.503906 C 172.386719 97.453125 181.804688 89.042969 183.230469 81.109375 C 184.652344 73.171875 183.5 70.527344 185.464844 68.085938 C 187.363281 65.714844 192.851562 63 192.851562 63 L 191.972656 65.644531 C 192.378906 65.511719 200.644531 61.375 200.644531 61.375 L 198.273438 65.238281 L 209.253906 60.355469 L 206.609375 63.613281 L 214.671875 59.882812 C 217.25 72.425781 222.398438 86.804688 236.5625 88.769531 C 239.949219 90.941406 245.644531 92.027344 248.558594 90.601562 C 252.894531 94.738281 259.535156 94.0625 259.535156 94.0625 C 257.570312 91.890625 256.078125 88.09375 256.078125 88.09375 C 256.078125 88.09375 266.378906 99.894531 276.476562 101.722656 C 276.476562 101.722656 288.40625 110.132812 276.679688 123.359375 C 269.972656 130.886719 258.925781 135.15625 255.671875 139.226562 C 252.421875 143.296875 250.660156 170.015625 254.046875 174.289062 C 254.589844 174.964844 255.402344 175.574219 256.488281 176.117188 C 256.417969 183.035156 261.636719 195.242188 271.191406 199.582031 Z M 267.804688 179.714844 C 269.089844 184.664062 271.53125 191.242188 276.003906 194.566406 C 282.710938 187.445312 287.1875 182.832031 287.1875 182.832031 C 283.730469 182.425781 275.324219 181.410156 267.804688 179.714844 Z M 264.890625 178.96875 C 263.671875 178.628906 262.449219 178.289062 261.367188 177.949219 C 262.519531 183.714844 266.042969 191.917969 272.074219 195.378906 C 268.277344 191.648438 266.378906 184.527344 264.890625 178.96875 Z M 264.890625 178.96875 " fill-opacity="1" fill-rule="nonzero"/><path fill="#f3eff9" d="M 164.457031 198.566406 L 216.230469 203.378906 L 215.621094 209.347656 L 212.097656 209.007812 L 199.96875 279.605469 C 179.773438 282.996094 166.625 276.28125 166.625 276.28125 L 164.660156 204.601562 L 161.609375 204.332031 L 162.222656 198.363281 L 164.457031 198.566406 C 166.015625 187.78125 175.300781 177.542969 190.007812 178.832031 C 211.148438 180.664062 213.453125 196.800781 213.589844 202.972656 Z M 230.9375 101.859375 C 230.9375 101.859375 224.5 103.285156 221.992188 105.386719 C 219.484375 107.488281 216.707031 111.964844 216.640625 112.710938 C 216.570312 113.457031 216.640625 116.101562 216.640625 116.101562 C 226.398438 119.222656 245.984375 116.035156 247.269531 103.828125 C 247.269531 103.828125 241.644531 100.230469 230.9375 101.859375 Z M 195.96875 117.933594 C 195.96875 117.933594 197.257812 115.492188 196.648438 111.285156 C 196.648438 111.285156 191.835938 103.417969 180.855469 102.808594 C 169.878906 102.199219 170.625 106.132812 170.625 106.132812 C 170.625 106.132812 174.214844 119.085938 195.96875 117.933594 Z M 195.96875 117.933594 " fill-opacity="1" fill-rule="nonzero"/><path fill="#8c5d58" d="M 150.023438 175.644531 C 146.632812 181.949219 137.824219 199.652344 138.976562 211.179688 C 139.316406 214.300781 138.230469 217.554688 136.332031 220.605469 L 128.539062 215.519531 C 128.609375 207.585938 131.183594 199.71875 135.65625 193.277344 C 138.976562 188.527344 143.3125 184.527344 146.972656 179.984375 C 148.058594 178.628906 149.140625 177.136719 150.023438 175.644531 Z M 151.378906 173.269531 L 152.9375 169.269531 C 152.191406 167.234375 151.242188 165.269531 150.292969 163.371094 C 148.191406 158.960938 145.957031 154.484375 145.617188 149.601562 C 145.480469 147.296875 145.753906 144.855469 146.90625 142.820312 C 148.125 146.753906 149.820312 150.484375 151.308594 154.351562 C 152.53125 157.535156 153.613281 160.859375 153.683594 164.320312 C 153.683594 165.539062 153.546875 166.761719 153.277344 167.914062 C 156.867188 151.839844 150.363281 138.277344 150.769531 133.597656 C 151.175781 128.78125 157.882812 116.167969 157.75 104.84375 L 157.679688 104.84375 C 157.273438 109.320312 155.648438 113.726562 152.9375 117.320312 C 151.242188 119.558594 149.140625 121.457031 147.71875 123.832031 C 145.210938 127.96875 144.871094 132.988281 145.683594 137.734375 C 143.109375 144.378906 142.90625 151.910156 145.144531 158.621094 C 146.769531 163.707031 149.683594 168.386719 151.378906 173.269531 C 151.378906 173.339844 151.308594 173.339844 151.308594 173.40625 C 151.308594 173.339844 151.378906 173.269531 151.378906 173.269531 Z M 169.269531 58.730469 L 162.289062 64.085938 C 162.289062 64.085938 166.558594 53.644531 174.082031 43.132812 C 174.554688 43.199219 175.027344 43.402344 175.4375 43.742188 C 176.316406 44.554688 176.792969 45.777344 177.0625 46.929688 C 177.332031 48.082031 177.605469 49.300781 178.28125 50.320312 C 178.824219 51.203125 179.707031 51.8125 180.382812 52.625 C 182.078125 54.59375 183.839844 58.117188 182.957031 60.628906 C 183.363281 59.882812 183.566406 59.066406 183.769531 58.253906 C 184.855469 54.253906 187.09375 50.457031 190.074219 47.539062 C 191.566406 46.113281 193.460938 45.097656 195.496094 44.625 C 192.648438 44.554688 189.9375 42.25 189.394531 39.402344 C 189.191406 38.25 189.261719 36.960938 188.71875 35.875 C 188.3125 34.992188 187.5 34.382812 187.023438 33.570312 C 186.144531 32.210938 186.347656 30.3125 187.296875 29.023438 C 191.902344 25.429688 197.121094 22.855469 202.746094 22.175781 C 202.746094 22.175781 198.746094 20.886719 195.425781 21.363281 C 195.425781 21.363281 217.113281 2.78125 249.03125 2.035156 C 245.574219 1.425781 241.984375 1.085938 238.257812 1.015625 C 204.574219 0.542969 185.464844 19.597656 178.351562 27.601562 C 170.964844 32.28125 159.035156 55.949219 153.277344 60.015625 C 153.277344 60.015625 155.648438 61.78125 158.085938 60.695312 C 157.070312 63.339844 155.78125 69.648438 155.375 72.425781 C 155.308594 72.699219 155.648438 72.835938 155.78125 72.632812 C 156.933594 71.003906 159.035156 68.765625 159.984375 67.75 C 156.121094 72.089844 154.835938 84.226562 155.78125 90.46875 C 155.917969 90.398438 155.984375 90.332031 156.121094 90.195312 C 157.679688 88.839844 159.917969 85.378906 159.917969 85.378906 C 160.933594 81.515625 163.914062 63.339844 169.269531 58.730469 Z M 166.492188 102.671875 C 166.015625 102.742188 165.609375 102.742188 165.203125 102.742188 C 164.796875 100.503906 164.390625 98.402344 163.984375 96.503906 C 172.453125 97.453125 181.875 89.042969 183.296875 81.109375 C 184.3125 75.683594 184.042969 72.699219 184.449219 70.597656 C 185.125 76.496094 185.601562 100.84375 166.492188 102.671875 Z M 205.390625 227.117188 C 205.523438 227.253906 205.523438 227.523438 205.390625 227.660156 C 204.304688 229.015625 199.222656 235.320312 195.292969 237.558594 C 190.886719 240.070312 166.898438 229.355469 168.457031 225.082031 C 170.015625 220.878906 178.621094 219.792969 182.753906 221.554688 C 186.957031 223.25 192.445312 223.386719 195.292969 223.117188 C 198.070312 222.777344 202.339844 222.980469 205.390625 227.117188 Z M 293.148438 46.523438 C 292.539062 45.03125 291.183594 43.878906 289.625 43.539062 C 287.796875 43.132812 285.832031 43.878906 284.679688 45.367188 C 283.730469 46.65625 283.390625 48.285156 282.507812 49.640625 C 281.359375 51.335938 279.324219 52.152344 277.699219 53.371094 C 276.070312 54.59375 274.582031 56.898438 275.394531 58.796875 C 271.53125 47.132812 258.859375 34.859375 258.859375 34.859375 C 260.960938 34.859375 262.855469 35.265625 264.820312 35.941406 C 266.789062 36.621094 269.160156 36.890625 270.785156 35.671875 C 271.667969 34.992188 272.207031 33.90625 273.023438 33.09375 C 274.105469 31.941406 275.664062 31.261719 277.222656 31.195312 C 277.765625 31.195312 278.308594 31.261719 278.851562 31.128906 C 280.070312 30.855469 281.019531 29.769531 281.425781 28.550781 C 281.832031 27.328125 281.765625 26.042969 281.695312 24.820312 C 286.914062 30.789062 290.710938 38.789062 293.148438 46.523438 Z M 293.351562 47.199219 C 293.285156 46.996094 293.21875 46.726562 293.148438 46.523438 C 293.21875 46.726562 293.285156 46.996094 293.351562 47.199219 Z M 254.183594 39.605469 C 259.671875 45.707031 265.972656 52.015625 268.753906 59.746094 C 266.921875 60.628906 265.160156 61.578125 263.128906 61.984375 C 259.535156 62.730469 255.46875 61.78125 252.21875 63.613281 C 250.726562 64.425781 249.574219 65.78125 248.152344 66.730469 C 247.472656 65.714844 246.726562 64.765625 245.914062 63.882812 C 244.898438 62.730469 243.882812 61.984375 243.273438 60.628906 C 243.476562 63.070312 243.949219 65.511719 244.628906 67.953125 C 242.324219 68.019531 239.949219 67.273438 237.648438 67.546875 C 235.75 67.816406 233.988281 68.765625 232.089844 69.105469 C 230.058594 69.445312 228.023438 69.105469 225.992188 68.628906 C 225.042969 68.425781 224.160156 68.15625 223.210938 68.289062 C 222.261719 68.425781 221.722656 69.171875 221.449219 70.121094 C 220.09375 68.765625 219.417969 66.800781 218.875 64.96875 C 217.859375 61.507812 217.046875 57.984375 216.367188 54.457031 C 217.65625 55.203125 219.144531 54.796875 220.5 54.183594 C 221.316406 53.777344 222.058594 53.167969 222.804688 52.625 C 224.972656 51.269531 227.617188 51.132812 230.125 51.269531 C 232.023438 51.40625 233.988281 51.742188 235.886719 51.335938 C 239.476562 50.457031 241.984375 46.929688 245.574219 46.113281 C 247.949219 45.574219 250.792969 46.183594 252.554688 44.488281 C 253.84375 43.199219 254.046875 41.300781 254.183594 39.605469 Z M 254.183594 39.605469 " fill-opacity="1" fill-rule="nonzero"/><path fill="#f2aea2" d="M 202.949219 240.816406 L 204.167969 234.578125 C 204.441406 233.964844 204.574219 233.355469 204.574219 232.675781 L 205.59375 227.386719 C 203.898438 223.589844 199.5625 225.828125 194.886719 227.792969 C 194.816406 227.792969 194.683594 227.792969 194.613281 227.792969 C 191.429688 227.589844 186.277344 227.660156 181.875 227.792969 C 178.078125 225.488281 174.824219 222.371094 168.386719 225.148438 L 168.457031 229.015625 C 166.761719 229.355469 165.472656 229.695312 165.472656 229.695312 L 165.472656 225.148438 C 165.472656 225.148438 173.265625 221.417969 180.585938 220.675781 C 189.394531 219.792969 190.140625 215.996094 190.140625 214.230469 C 190.140625 212.46875 188.652344 211.519531 181.535156 212.0625 C 178.28125 212.332031 167.507812 214.367188 161.746094 216.199219 C 155.984375 218.027344 151.71875 222.84375 149.34375 225.21875 C 146.972656 227.589844 145.550781 230.980469 145.414062 234.78125 C 144.941406 235.796875 142.566406 241.085938 139.382812 248.34375 C 135.925781 267.261719 154.765625 276.894531 161.8125 274.453125 C 165.339844 273.300781 168.050781 271.605469 169.8125 270.246094 C 170.488281 272.824219 172.589844 274.792969 175.300781 275.199219 C 179.296875 275.875 184.921875 276.554688 190.34375 276.621094 C 193.597656 276.621094 196.445312 274.316406 197.054688 271.128906 L 201.660156 247.664062 C 203.425781 246.714844 204.574219 245.496094 204.574219 244.136719 C 204.574219 242.441406 204.304688 241.425781 202.949219 240.816406 Z M 168.792969 240.070312 L 168.792969 241.15625 C 166.695312 241.359375 164.863281 241.628906 164.863281 241.628906 C 164.863281 241.628906 166.695312 240.746094 168.792969 240.070312 Z M 169.132812 252.074219 L 169.132812 253.15625 C 168.660156 252.617188 168.386719 252.207031 168.386719 252.207031 C 168.386719 252.207031 168.660156 252.140625 169.132812 252.074219 Z M 169.132812 252.074219 " fill-opacity="1" fill-rule="nonzero"/><path fill="#8c5d58" d="M 262.042969 129.191406 C 260.621094 129.867188 258.859375 129.9375 257.503906 129.054688 C 256.011719 128.105469 255.46875 126.070312 255.875 124.308594 C 256.285156 122.542969 257.433594 121.121094 258.585938 119.761719 C 259.808594 118.40625 261.09375 117.1875 261.90625 115.625 C 263.128906 113.390625 263.332031 110.742188 264.414062 108.4375 C 265.5 106.132812 267.804688 104.574219 270.378906 104.84375 C 275.121094 105.453125 278.917969 112.101562 273.496094 118.679688 C 268.074219 125.257812 265.5 127.496094 262.042969 129.191406 Z M 238.527344 153.875 C 232.835938 158.078125 215.011719 163.03125 206.878906 163.640625 C 206.878906 163.640625 209.386719 175.984375 206 179.171875 C 219.757812 177.339844 238.527344 153.875 238.527344 153.875 Z M 163.984375 253.089844 C 163.984375 253.089844 167.03125 255.597656 174.824219 256.277344 C 174.824219 256.277344 170.015625 255.871094 168.386719 252.277344 Z M 163.507812 225.691406 C 163.507812 225.691406 156.324219 232.949219 156.121094 233.492188 C 155.851562 234.035156 157.75 232.949219 157.75 232.949219 C 160.121094 232.339844 165.542969 229.625 165.542969 229.625 L 165.542969 225.082031 Z M 163.507812 225.691406 " fill-opacity="1" fill-rule="nonzero"/><path fill="#472726" d="M 227.414062 102.671875 L 236.628906 101.453125 C 238.664062 103.554688 239.679688 113.320312 236.496094 115.21875 C 233.308594 116.371094 227.753906 116.984375 227.753906 116.984375 C 224.769531 115.355469 223.144531 105.320312 227.414062 102.671875 Z M 193.9375 118 C 195.089844 115.828125 195.5625 112.574219 194.75 108.914062 C 192.648438 106.808594 188.855469 103.894531 182.957031 103.011719 C 181.332031 104.84375 181.332031 113.253906 185.195312 117.1875 C 187.632812 117.730469 190.546875 118.066406 193.9375 118 Z M 205.320312 120.441406 L 201.527344 125.460938 L 203.964844 126.070312 Z M 206.878906 162.894531 L 206.878906 164.25 C 211.757812 164.183594 225.175781 160.453125 225.71875 160.316406 C 225.789062 160.316406 211.625 162.828125 206.878906 162.894531 Z M 146.972656 243.867188 C 146.972656 243.867188 146.566406 238.847656 146.429688 237.019531 C 146.363281 235.933594 146.296875 234.984375 146.023438 234.371094 L 144.804688 234.914062 C 145.007812 235.320312 145.074219 236.203125 145.144531 237.152344 C 145.210938 239.050781 145.414062 241.695312 146.972656 243.867188 Z M 154.5625 252.886719 C 154.222656 252.683594 153.953125 252.480469 153.75 252.277344 C 153.410156 251.9375 153.207031 251.460938 153.003906 250.988281 L 151.308594 250.582031 L 151.71875 251.53125 C 151.988281 252.074219 152.257812 252.683594 152.734375 253.15625 C 153.070312 253.496094 153.480469 253.769531 153.816406 253.972656 C 153.953125 254.039062 154.089844 254.105469 154.222656 254.242188 C 154.96875 254.71875 157.207031 255.53125 157.207031 255.53125 C 156.664062 254.582031 155.917969 253.699219 154.96875 253.089844 C 154.835938 253.023438 154.699219 252.953125 154.5625 252.886719 Z M 163.507812 253.15625 C 163.507812 253.15625 166.355469 253.429688 168.589844 252.886719 L 168.253906 251.597656 C 165.878906 252.140625 163.578125 253.089844 163.507812 253.15625 Z M 163.710938 226.234375 C 164.050781 226.097656 164.933594 225.828125 165.609375 225.761719 L 165.40625 224.402344 C 164.390625 224.539062 163.101562 225.015625 163.101562 225.015625 L 162.898438 225.082031 L 162.761719 225.21875 C 162.761719 225.21875 157.816406 230.234375 157.816406 230.234375 C 160.933594 229.488281 163.167969 226.914062 163.710938 226.234375 Z M 164.933594 230.507812 C 165.269531 230.371094 165.542969 230.304688 165.746094 230.234375 L 165.269531 228.949219 C 165.066406 229.015625 164.796875 229.152344 164.457031 229.21875 C 162.695312 229.828125 159.847656 230.847656 158.085938 231.796875 C 156.257812 232.8125 151.242188 236.203125 150.226562 237.492188 C 150.226562 237.492188 156.597656 234.167969 158.695312 232.949219 C 160.390625 232.136719 163.238281 231.117188 164.933594 230.507812 Z M 161.542969 223.523438 C 161.542969 223.523438 159.511719 220.132812 159.375 218.503906 L 158.019531 218.640625 C 158.222656 220.742188 159.644531 222.640625 161.542969 223.523438 Z M 182.007812 212.332031 L 180.652344 212.128906 C 180.449219 213.417969 180.855469 214.773438 181.671875 215.859375 C 181.738281 215.859375 181.875 213.28125 182.007812 212.332031 Z M 172.726562 234.371094 C 172.996094 235.1875 173.402344 235.933594 173.945312 236.609375 C 173.945312 236.609375 173.945312 233.964844 173.742188 232.949219 C 173.605469 232.203125 172.386719 230.371094 172.386719 230.371094 C 172.183594 231.660156 172.320312 233.085938 172.726562 234.371094 Z M 196.171875 230.167969 C 195.5625 230.507812 195.292969 231.117188 195.292969 232.066406 C 195.292969 233.355469 195.496094 234.578125 196.039062 235.796875 C 196.039062 235.796875 196.648438 233.152344 196.648438 232.136719 C 196.648438 231.59375 196.171875 230.167969 196.171875 230.167969 Z M 179.027344 249.089844 C 179.027344 249.089844 178.621094 247.191406 178.417969 245.359375 C 178.351562 244.476562 176.996094 242.917969 176.996094 242.917969 C 176.722656 245.085938 177.535156 247.460938 179.027344 249.089844 Z M 197.1875 246.851562 C 197.1875 246.851562 197.460938 244.613281 197.257812 243.867188 C 197.1875 243.460938 196.578125 241.628906 196.578125 241.628906 C 195.902344 242.105469 195.699219 243.054688 195.96875 244.207031 C 196.171875 245.15625 196.578125 246.039062 197.1875 246.851562 Z M 183.5 262.789062 L 184.3125 260.753906 L 182.550781 259.601562 L 183.09375 261.566406 Z M 237.648438 196.734375 C 237.648438 196.734375 240.765625 192.257812 246.117188 191.308594 C 250.183594 190.5625 260.757812 188.734375 260.757812 188.734375 C 255.605469 188.800781 250.046875 189.207031 245.914062 190.019531 C 239.816406 191.105469 238.324219 195.175781 237.714844 196.734375 Z M 211.488281 193.410156 C 215.417969 193.34375 219.757812 197.210938 219.757812 197.210938 C 218.535156 193.546875 216.027344 191.988281 211.488281 192.054688 Z M 213.792969 142.210938 C 216.707031 141.191406 219.28125 139.429688 221.382812 137.125 C 221.382812 137.125 215.960938 139.90625 213.25 140.921875 C 211.015625 141.734375 206.136719 143.296875 206.136719 143.296875 C 206.542969 143.296875 206.878906 143.363281 207.285156 143.363281 C 209.523438 143.363281 211.691406 142.957031 213.792969 142.210938 Z M 300.265625 246.308594 C 300.265625 246.308594 311.109375 322.738281 308.398438 329.382812 L 309.617188 329.925781 C 312.597656 322.871094 304.398438 257.226562 300.265625 246.308594 Z M 305.007812 187.035156 C 288 198.972656 236.089844 252.546875 231.683594 264.144531 C 227.007812 276.621094 218.605469 332.230469 220.433594 338.539062 L 219.144531 338.945312 C 218.875 337.929688 218.808594 335.621094 218.941406 332.503906 C 217.453125 332.570312 215.621094 332.570312 213.726562 332.570312 C 210.269531 332.570312 206.746094 332.503906 205.320312 332.433594 C 205.1875 335.960938 205.1875 338.0625 205.1875 338.0625 L 203.832031 338.0625 C 203.832031 337.996094 203.832031 329.519531 204.847656 317.855469 C 205.59375 309.648438 209.386719 287.539062 212.84375 272.757812 C 209.589844 270.65625 206.136719 267.671875 202.273438 263.601562 L 202.8125 263.058594 C 203.761719 259.734375 208.640625 249.15625 209.183594 247.867188 L 210.402344 248.410156 C 208.777344 251.871094 204.644531 261.023438 204.035156 263.464844 C 205.457031 264.957031 206.878906 266.246094 208.234375 267.46875 C 209.183594 263.941406 212.503906 254.785156 212.910156 253.632812 L 214.199219 254.105469 C 212.4375 259.058594 209.792969 266.585938 209.386719 268.484375 C 210.675781 269.570312 211.960938 270.519531 213.113281 271.332031 C 214.46875 265.566406 215.824219 261.023438 216.773438 259.261719 L 217.996094 259.941406 C 217.925781 260.007812 217.925781 260.144531 217.859375 260.210938 C 219.078125 260.753906 225.789062 263.804688 229.855469 265.160156 C 230.058594 264.617188 230.191406 264.078125 230.394531 263.601562 C 230.871094 262.382812 231.75 260.820312 232.972656 258.921875 C 229.785156 256.886719 222.941406 252.820312 222.875 252.75 L 223.550781 251.597656 C 223.617188 251.664062 230.53125 255.734375 233.714844 257.835938 C 234.9375 256.140625 236.359375 254.175781 238.054688 252.074219 C 236.359375 248.546875 230.597656 243.730469 230.53125 243.664062 L 231.414062 242.644531 C 231.683594 242.851562 236.832031 247.257812 238.933594 250.921875 C 240.359375 249.15625 241.917969 247.257812 243.609375 245.292969 C 241.304688 243.054688 235.816406 237.832031 235.75 237.761719 L 236.699219 236.746094 C 236.765625 236.8125 242.1875 241.96875 244.558594 244.273438 C 246.050781 242.511719 247.675781 240.746094 249.304688 238.917969 C 246.796875 236.273438 241.171875 232 241.171875 231.929688 L 241.984375 230.847656 C 242.253906 231.050781 247.609375 235.1875 250.25 237.898438 C 251.945312 236 253.707031 234.101562 255.539062 232.203125 C 252.082031 229.082031 247.066406 225.625 247.066406 225.625 L 247.8125 224.472656 C 248.015625 224.605469 252.960938 228 256.488281 231.183594 C 258.382812 229.152344 260.347656 227.117188 262.316406 225.082031 C 259.265625 222.371094 253.640625 218.640625 253.574219 218.570312 L 254.316406 217.417969 C 254.589844 217.554688 260.078125 221.351562 263.195312 224.066406 C 265.160156 222.03125 267.195312 219.929688 269.226562 217.960938 C 267.53125 216.265625 262.113281 212.941406 260.011719 211.722656 L 260.6875 210.570312 C 261.5 211.042969 267.9375 214.839844 270.175781 217.011719 C 272.140625 215.046875 274.105469 213.078125 276.070312 211.113281 C 273.5625 208.804688 266.378906 205.078125 266.3125 205.007812 L 266.921875 203.789062 C 267.261719 203.921875 274.378906 207.652344 277.089844 210.164062 C 279.054688 208.195312 281.019531 206.363281 282.917969 204.535156 C 280.476562 202.90625 278.375 201.753906 278.308594 201.683594 L 278.984375 200.53125 C 278.984375 200.53125 281.289062 201.890625 283.933594 203.585938 C 285.832031 201.753906 287.726562 199.988281 289.558594 198.363281 L 288.066406 197.007812 L 289.015625 195.988281 L 290.574219 197.414062 C 293.285156 194.902344 295.859375 192.664062 298.097656 190.765625 C 297.351562 190.019531 296.335938 189.273438 295.046875 188.460938 L 295.792969 187.308594 C 297.214844 188.191406 298.300781 189.070312 299.179688 189.886719 C 301.144531 188.257812 302.90625 186.902344 304.332031 185.882812 Z M 215.214844 269.027344 C 218.265625 270.382812 225.042969 273.097656 227.820312 273.230469 C 228.429688 270.585938 228.972656 268.28125 229.515625 266.449219 C 225.449219 265.027344 218.738281 262.042969 217.382812 261.429688 C 216.773438 263.195312 215.960938 265.839844 215.214844 269.027344 Z M 223.957031 293.371094 C 223.6875 293.371094 223.414062 293.371094 223.144531 293.371094 C 218.535156 293.371094 212.707031 291.066406 210.675781 290.183594 C 210.066406 293.304688 209.523438 296.355469 208.980469 299.339844 C 210.609375 300.15625 216.570312 303.136719 222.398438 303.136719 C 222.875 299.882812 223.414062 296.628906 223.957031 293.371094 Z M 220.839844 314.191406 C 220.296875 314.261719 219.6875 314.328125 219.078125 314.328125 C 214.808594 314.328125 209.253906 312.429688 207.015625 311.683594 C 206.675781 314.261719 206.40625 316.429688 206.269531 317.988281 C 206.203125 318.871094 206.136719 319.753906 206.066406 320.636719 C 208.234375 320.972656 215.691406 322.195312 219.960938 321.855469 C 220.164062 319.414062 220.5 316.835938 220.839844 314.191406 Z M 222.195312 304.496094 C 216.503906 304.425781 210.878906 301.851562 208.777344 300.765625 C 208.167969 304.222656 207.695312 307.410156 207.285156 310.257812 C 209.523438 311.074219 217.113281 313.71875 221.113281 312.769531 C 221.382812 310.125 221.789062 307.34375 222.195312 304.496094 Z M 225.921875 282.453125 C 220.230469 281.980469 214.742188 280.214844 212.84375 279.539062 C 212.234375 282.523438 211.554688 285.710938 210.945312 288.898438 C 212.777344 289.710938 219.621094 292.492188 224.230469 292.015625 C 224.703125 288.695312 225.3125 285.4375 225.921875 282.453125 Z M 226.125 281.097656 C 226.601562 278.792969 227.007812 276.621094 227.480469 274.585938 C 224.09375 274.25 217.113281 271.332031 214.808594 270.382812 C 214.199219 272.757812 213.65625 275.402344 213.046875 278.183594 C 214.808594 278.792969 220.433594 280.691406 226.125 281.097656 Z M 219.078125 331.078125 C 219.214844 328.773438 219.484375 326.128906 219.757812 323.210938 C 219.214844 323.28125 218.671875 323.28125 218.0625 323.28125 C 213.65625 323.28125 207.964844 322.332031 205.929688 321.992188 C 205.660156 325.449219 205.523438 328.5 205.390625 331.011719 C 207.695312 331.078125 215.148438 331.28125 219.078125 331.078125 Z M 293.082031 323.617188 C 290.710938 325.652344 285.421875 329.585938 285.421875 329.585938 C 288.40625 328.5 291.25 326.941406 293.691406 324.90625 C 296.539062 322.535156 298.976562 319.617188 300.671875 316.363281 C 300.738281 316.292969 295.722656 321.382812 293.082031 323.617188 Z M 162.355469 273.910156 L 161.203125 274.585938 C 162.492188 276.960938 161.746094 284.488281 160.390625 285.507812 C 160.324219 285.574219 158.898438 286.589844 155.917969 286.320312 C 155.917969 286.253906 155.984375 286.183594 155.984375 286.046875 C 156.597656 284.148438 157.882812 280.214844 157.816406 274.453125 C 157.816406 274.453125 155.308594 283.8125 154.699219 285.640625 C 154.632812 285.84375 154.5625 285.980469 154.5625 286.117188 C 153.074219 285.84375 151.308594 285.234375 149.210938 284.148438 C 149.414062 281.910156 151.445312 272.214844 151.445312 272.214844 C 150.363281 273.230469 148.464844 280.488281 147.921875 283.472656 C 147.582031 283.269531 147.175781 283.066406 146.769531 282.792969 C 145.414062 281.980469 144.195312 281.03125 143.042969 280.011719 C 143.042969 277.640625 145.957031 268.214844 145.957031 268.214844 C 144.535156 269.367188 142.363281 275.539062 141.824219 278.792969 C 140.601562 277.503906 139.519531 276.214844 138.570312 274.792969 C 138.503906 272.011719 141.621094 263.058594 141.621094 263.058594 C 140.0625 263.738281 138.09375 269.367188 137.417969 272.890625 C 136.402344 271.0625 135.65625 269.296875 135.113281 267.535156 C 134.976562 264.414062 138.910156 253.902344 138.910156 253.902344 C 138.570312 253.902344 138.296875 254.039062 138.027344 254.378906 C 136.945312 255.53125 135.113281 260.277344 134.234375 264.007812 C 134.03125 262.789062 133.960938 261.703125 133.960938 260.820312 C 133.960938 258.242188 139.449219 247.394531 139.449219 247.394531 C 139.042969 247.257812 138.636719 247.394531 138.230469 247.734375 C 136.128906 249.359375 132.878906 257.769531 132.675781 260.550781 C 128.675781 265.027344 115.867188 281.371094 107.398438 314.734375 L 108.683594 315.074219 C 116.476562 284.285156 127.929688 268.214844 132.675781 262.585938 C 133.214844 268.6875 136.875 278.316406 146.023438 283.878906 C 150.769531 286.792969 154.359375 287.609375 156.800781 287.609375 C 158.289062 287.609375 159.308594 287.335938 160.050781 287.066406 C 160.050781 291.066406 159.308594 306.121094 151.175781 329.382812 L 152.460938 329.859375 C 161.40625 304.425781 161.476562 288.625 161.40625 286.253906 C 163.238281 284.285156 163.847656 276.621094 162.355469 273.910156 Z M 286.167969 192.191406 L 281.628906 188.527344 L 280.746094 189.613281 L 285.289062 193.277344 Z M 292.539062 184.59375 L 288.066406 182.222656 L 287.457031 183.441406 L 291.929688 185.816406 Z M 196.308594 270.789062 C 195.765625 273.707031 193.191406 275.742188 190.277344 275.742188 C 184.855469 275.671875 179.164062 274.925781 175.367188 274.316406 C 172.996094 273.910156 171.03125 272.144531 170.421875 269.839844 L 169.132812 270.179688 C 169.878906 273.027344 172.25 275.199219 175.164062 275.671875 C 179.027344 276.28125 184.789062 277.027344 190.277344 277.097656 C 190.277344 277.097656 190.34375 277.097656 190.34375 277.097656 C 193.867188 277.097656 196.984375 274.585938 197.664062 271.0625 L 202.273438 247.597656 L 200.917969 247.324219 Z M 169.199219 228.878906 L 169.132812 225.488281 C 174.082031 223.523438 176.996094 225.351562 180.042969 227.320312 C 180.519531 227.660156 181.058594 227.996094 181.601562 228.269531 L 182.28125 227.117188 C 181.804688 226.84375 181.265625 226.507812 180.789062 226.167969 C 177.46875 224.066406 174.082031 221.828125 168.183594 224.402344 L 167.777344 224.605469 L 167.914062 228.878906 Z M 202.273438 240.679688 L 203.628906 240.949219 L 204.847656 234.78125 L 203.492188 234.507812 Z M 257.097656 129.664062 C 257.910156 130.140625 258.722656 130.34375 259.605469 130.34375 C 260.550781 130.34375 261.5 130.140625 262.246094 129.867188 C 262.246094 129.867188 259.128906 129.324219 257.84375 128.511719 C 256.554688 127.699219 256.214844 125.867188 256.554688 124.511719 C 256.960938 122.882812 258.046875 121.457031 259.128906 120.238281 C 259.332031 119.96875 259.535156 119.761719 259.808594 119.492188 C 260.824219 118.40625 261.839844 117.253906 262.585938 115.898438 C 263.261719 114.609375 263.671875 113.183594 264.078125 111.828125 C 264.414062 110.742188 264.6875 109.660156 265.09375 108.640625 C 266.585938 105.320312 270.851562 104.84375 270.851562 104.84375 C 268.074219 103.894531 265.023438 105.453125 263.875 108.097656 C 263.398438 109.183594 263.058594 110.335938 262.722656 111.488281 C 262.382812 112.847656 261.976562 114.132812 261.367188 115.289062 C 260.6875 116.507812 259.738281 117.527344 258.789062 118.609375 C 258.585938 118.882812 258.316406 119.085938 258.113281 119.355469 C 256.960938 120.644531 255.671875 122.273438 255.199219 124.171875 C 254.65625 126.410156 255.46875 128.648438 257.097656 129.664062 Z M 250.863281 137.394531 C 252.015625 138.140625 253.503906 138.683594 255.0625 138.683594 C 256.417969 138.683594 257.773438 138.277344 258.859375 137.328125 L 257.976562 136.3125 C 256.285156 137.800781 253.4375 137.464844 251.675781 136.242188 C 251.132812 135.902344 249.101562 133.191406 249.101562 133.191406 C 248.558594 134.683594 249.234375 136.242188 250.863281 137.394531 Z M 190.34375 222.640625 L 189.734375 223.859375 C 190.414062 224.199219 191.902344 224.066406 194.683594 223.859375 C 195.5625 223.792969 196.511719 223.726562 197.394531 223.65625 C 198.816406 223.589844 200.511719 223.996094 202 224.675781 C 200.171875 224.8125 198.003906 225.761719 195.835938 226.640625 C 195.425781 226.777344 195.089844 226.980469 194.683594 227.117188 L 195.222656 228.335938 C 195.628906 228.203125 196.039062 227.996094 196.375 227.863281 C 200.78125 225.964844 203.628906 224.945312 204.914062 227.386719 L 203.898438 232.472656 L 205.253906 232.746094 L 206.339844 227.253906 L 206.269531 227.046875 C 205.1875 223.996094 200.714844 222.097656 197.394531 222.300781 C 196.511719 222.371094 195.5625 222.4375 194.683594 222.503906 C 192.988281 222.640625 190.820312 222.777344 190.34375 222.640625 Z M 190.34375 222.640625 " fill-opacity="1" fill-rule="nonzero"/><path fill="#f3eff9" d="M 189.734375 113.253906 C 185.871094 113.253906 182.753906 109.996094 182.753906 105.929688 C 182.753906 104.910156 182.957031 103.960938 183.296875 103.011719 C 188.921875 103.960938 192.648438 106.742188 194.683594 108.84375 C 194.816406 109.457031 194.886719 109.996094 194.953125 110.609375 C 193.734375 112.234375 191.835938 113.253906 189.734375 113.253906 Z M 237.171875 102.265625 C 236.96875 101.929688 236.832031 101.65625 236.628906 101.453125 L 227.414062 102.671875 C 226.195312 103.417969 225.515625 104.777344 225.109375 106.335938 C 225.992188 108.84375 228.363281 110.675781 231.140625 110.675781 C 234.664062 110.675781 237.511719 107.828125 237.511719 104.300781 C 237.511719 103.554688 237.445312 102.878906 237.171875 102.265625 Z M 237.171875 102.265625 " fill-opacity="1" fill-rule="nonzero"/><g clip-path="url(#bdcaa8e1fb)"><path fill="#110c0e" d="M 188.652344 271.332031 C 188.652344 269.367188 190.210938 267.804688 192.175781 267.804688 C 194.140625 267.804688 195.699219 269.367188 195.699219 271.332031 C 195.699219 273.300781 194.140625 274.859375 192.175781 274.859375 C 190.210938 274.859375 188.652344 273.300781 188.652344 271.332031 Z M 184.109375 275.128906 C 186.074219 275.128906 187.632812 273.570312 187.632812 271.605469 C 187.632812 269.636719 186.074219 268.078125 184.109375 268.078125 C 182.144531 268.078125 180.585938 269.636719 180.585938 271.605469 C 180.585938 273.570312 182.144531 275.128906 184.109375 275.128906 Z M 175.976562 274.25 C 177.941406 274.25 179.5 272.6875 179.5 270.722656 C 179.5 268.753906 177.941406 267.195312 175.976562 267.195312 C 174.011719 267.195312 172.453125 268.753906 172.453125 270.722656 C 172.453125 272.6875 174.011719 274.25 175.976562 274.25 Z M 392.972656 304.292969 L 392.292969 304.5625 C 349.261719 321.855469 306.839844 332.910156 266.246094 337.25 C 252.757812 338.675781 239.410156 339.421875 226.328125 339.421875 C 207.964844 339.421875 190.074219 337.996094 172.792969 335.148438 C 122.578125 326.804688 94.996094 308.902344 94.722656 308.699219 L 94.453125 308.429688 L 94.519531 308.019531 C 98.316406 278.996094 115.730469 237.425781 127.863281 216.402344 C 127.996094 207.992188 130.707031 199.242188 135.113281 192.871094 C 137.078125 190.019531 139.449219 187.445312 141.753906 184.933594 C 143.3125 183.171875 144.941406 181.410156 146.429688 179.578125 C 148.191406 177.40625 149.617188 175.238281 150.632812 173.203125 C 150.160156 171.710938 147.785156 166.625 146.703125 164.386719 C 146.363281 163.707031 146.160156 163.234375 146.023438 162.960938 C 145.347656 161.46875 144.195312 158.148438 143.992188 157.402344 L 143.992188 157.332031 C 143.3125 155.027344 141.417969 146.890625 145.007812 138.007812 C 144.332031 134.074219 144.195312 128.375 147.109375 123.492188 C 148.058594 122 149.210938 120.644531 150.363281 119.355469 C 151.039062 118.542969 151.785156 117.730469 152.394531 116.914062 C 156.460938 111.558594 158.019531 104.234375 156.527344 97.585938 C 156.121094 97.65625 155.714844 97.65625 155.242188 97.722656 L 154.425781 97.789062 L 155.242188 91.347656 C 154.425781 86.941406 154.765625 78.464844 156.800781 72.425781 C 156.597656 72.699219 156.394531 72.96875 156.191406 73.242188 C 155.984375 73.582031 155.578125 73.714844 155.171875 73.582031 C 154.835938 73.445312 154.5625 73.039062 154.699219 72.632812 C 155.171875 70.191406 156.191406 64.765625 157.003906 61.78125 C 154.699219 62.050781 152.867188 60.695312 152.734375 60.628906 L 151.988281 60.085938 L 152.734375 59.542969 C 155.308594 57.710938 159.171875 51.742188 163.371094 45.4375 C 168.457031 37.707031 173.671875 29.769531 177.808594 27.125 C 193.664062 9.289062 214.539062 0 238.1875 0.339844 C 257.503906 0.609375 270.851562 8.410156 278.578125 14.917969 C 287.660156 22.515625 294.164062 32.621094 295.925781 41.910156 C 296.875 46.859375 297.351562 51.269531 297.894531 55.472656 C 299.046875 65.511719 299.992188 74.191406 306.636719 85.042969 C 316.664062 101.386719 319.171875 109.25 318.019531 120.171875 C 318.019531 120.375 317.953125 120.578125 317.953125 120.710938 C 318.5625 121.664062 321.410156 126.003906 325.339844 130.34375 C 325.882812 130.953125 326.492188 131.632812 327.167969 132.308594 C 331.914062 137.261719 339.027344 144.652344 340.992188 161.539062 C 347.636719 168.386719 352.3125 176.933594 354.546875 186.15625 C 355.089844 188.527344 355.5625 191.039062 355.902344 193.410156 C 356.171875 194.902344 356.445312 196.464844 356.714844 198.023438 C 357.394531 198.769531 361.121094 202.839844 367.898438 207.652344 C 375.351562 213.011719 382.195312 218.773438 383.484375 230.4375 C 388.632812 236.679688 391.617188 244.882812 391.546875 252.953125 C 391.546875 255.125 391.210938 258.582031 390.871094 262.515625 C 389.785156 275.199219 388.160156 294.390625 392.632812 303.476562 Z M 129.351562 213.960938 C 132.742188 208.332031 135.65625 204.535156 137.554688 203.515625 C 143.042969 199.855469 151.648438 196.667969 159.644531 194.089844 C 167.710938 185.882812 174.214844 166.285156 174.011719 160.929688 C 173.605469 158.078125 173.0625 155.367188 172.523438 152.925781 C 171.234375 146.550781 170.21875 141.464844 172.25 138.210938 C 171.03125 136.445312 170.21875 134.886719 170.082031 133.800781 C 169.8125 131.496094 168.457031 124.171875 166.898438 116.035156 C 166.355469 117.253906 165.542969 118.476562 164.660156 119.898438 C 161.882812 124.238281 156.867188 139.835938 156.867188 139.835938 C 156.730469 129.867188 160.664062 123.695312 163.507812 119.222656 C 165.066406 116.78125 166.285156 114.8125 166.355469 113.050781 C 165.746094 109.996094 165.203125 106.945312 164.660156 104.03125 C 164.1875 101.519531 163.710938 99.148438 163.304688 97.046875 L 162.425781 96.570312 C 161.746094 96.773438 159.847656 97.25 157.75 97.585938 C 159.308594 104.503906 157.679688 112.234375 153.34375 117.933594 C 152.664062 118.8125 151.921875 119.628906 151.242188 120.441406 C 150.089844 121.730469 149.007812 123.019531 148.125 124.441406 C 145.347656 128.988281 145.550781 134.410156 146.226562 138.210938 L 146.296875 138.414062 L 146.226562 138.617188 C 142.703125 147.160156 144.535156 155.027344 145.210938 157.199219 L 145.210938 157.265625 C 145.414062 157.945312 146.566406 161.199219 147.175781 162.625 C 147.3125 162.894531 147.515625 163.4375 147.855469 164.046875 C 149.683594 167.914062 151.648438 172.183594 151.921875 173.339844 L 151.988281 173.542969 L 151.851562 173.746094 C 150.769531 175.984375 149.277344 178.289062 147.378906 180.59375 C 145.890625 182.492188 144.195312 184.257812 142.636719 186.019531 C 140.398438 188.460938 138.027344 191.039062 136.128906 193.820312 C 132.402344 199.175781 129.894531 206.566406 129.351562 213.960938 Z M 168.792969 97.046875 L 169.199219 96.707031 C 167.914062 97.046875 166.625 97.25 165.40625 97.25 C 165.203125 97.25 165.066406 97.25 164.863281 97.25 C 165.203125 99.214844 165.675781 101.386719 166.082031 103.691406 C 166.558594 106.132812 167.03125 108.640625 167.507812 111.152344 C 167.710938 111.691406 167.847656 112.304688 167.847656 112.847656 C 169.609375 122.070312 171.234375 130.953125 171.574219 133.53125 C 172.046875 137.261719 182.28125 148.109375 191.089844 155.433594 L 191.359375 153.265625 C 191.699219 151.433594 194.070312 150.824219 196.242188 151.164062 C 198.542969 151.570312 199.898438 152.859375 199.695312 154.351562 L 198.816406 160.996094 C 200.171875 161.742188 200.984375 162.011719 201.457031 162.082031 C 204.574219 162.625 206.878906 162.828125 206.878906 162.828125 L 207.355469 162.894531 L 207.421875 163.371094 C 207.695312 164.726562 209.929688 176.59375 206.203125 179.714844 C 205.523438 180.253906 204.304688 180.933594 202.542969 181.679688 C 212.300781 187.171875 213.929688 197.34375 214.132812 202.429688 L 216.84375 202.703125 L 216.097656 210.027344 L 212.574219 209.6875 L 206.949219 242.441406 C 211.894531 250.175781 215.960938 256.277344 217.382812 258.378906 C 225.921875 246.78125 253.574219 217.078125 269.972656 199.71875 C 257.910156 192.871094 255.875 178.832031 255.605469 176.320312 C 254.589844 175.710938 253.910156 175.167969 253.4375 174.558594 C 249.710938 169.8125 251.742188 142.890625 255.0625 138.683594 C 256.417969 136.921875 258.992188 135.429688 262.179688 133.53125 C 266.71875 130.816406 272.410156 127.359375 276.816406 121.867188 C 279.933594 117.933594 281.289062 114.132812 280.816406 110.472656 C 280.207031 105.792969 276.75 102.878906 276.070312 102.335938 C 269.023438 100.910156 262.316406 95.347656 258.519531 91.6875 C 258.925781 92.367188 259.402344 92.976562 259.875 93.519531 L 260.824219 94.535156 L 259.46875 94.671875 C 259.199219 94.671875 252.757812 95.347656 248.285156 91.347656 C 244.964844 92.636719 239.410156 91.417969 236.222656 89.382812 C 221.519531 87.210938 216.503906 72.292969 214.0625 60.832031 L 204.167969 65.441406 L 206.878906 62.050781 L 196.511719 66.664062 L 198.746094 63 C 196.105469 64.359375 192.378906 66.1875 192.105469 66.257812 L 190.820312 66.730469 L 191.632812 64.425781 C 189.9375 65.375 187.160156 67.070312 186.007812 68.5625 C 185.058594 69.78125 184.921875 71.140625 184.789062 73.582031 C 184.652344 75.410156 184.515625 77.921875 183.90625 81.3125 C 183.160156 85.246094 180.519531 89.382812 176.925781 92.5 C 192.242188 93.042969 196.511719 93.382812 196.511719 93.382812 C 195.628906 95.214844 192.175781 96.976562 191.429688 96.910156 C 190.683594 96.839844 174.214844 95.6875 172.929688 95.824219 C 171.640625 95.824219 169.539062 96.570312 168.792969 97.046875 Z M 211.625 58.457031 L 210.945312 59.269531 C 211.21875 59.679688 211.488281 60.085938 211.625 60.425781 L 212.84375 59.882812 C 211.351562 56.492188 204.78125 50.726562 198.816406 49.300781 C 198.136719 49.4375 197.527344 49.574219 196.851562 49.84375 C 196.445312 49.980469 195.96875 50.183594 195.5625 50.386719 C 200.847656 49.914062 207.898438 55.339844 210.609375 58.863281 Z M 190.617188 54.523438 C 190.210938 55.066406 189.800781 55.609375 189.464844 56.21875 C 192.378906 55.203125 197.054688 55.878906 201.390625 57.984375 C 203.289062 58.933594 204.847656 59.949219 205.863281 61.035156 L 207.152344 60.425781 C 206 59.136719 204.167969 57.847656 201.933594 56.761719 C 198.746094 55.203125 194.273438 53.914062 190.617188 54.523438 Z M 187.429688 60.425781 C 187.226562 60.964844 187.023438 61.441406 186.886719 61.984375 C 191.566406 60.492188 195.222656 61.375 197.257812 62.253906 C 197.800781 61.984375 198.273438 61.710938 198.816406 61.507812 C 196.851562 60.425781 192.851562 59 187.429688 60.425781 Z M 161.542969 273.636719 C 168.523438 271.332031 172.046875 267.058594 172.046875 266.992188 L 172.113281 266.925781 C 174.148438 265.027344 180.316406 264.210938 186.277344 263.398438 C 189.394531 262.992188 192.308594 262.585938 193.9375 262.109375 C 196.578125 261.363281 197.597656 258.921875 197.1875 257.5 C 197.054688 256.957031 196.648438 256.34375 195.5625 256.546875 C 186.074219 258.515625 175.570312 257.160156 172.65625 256.546875 L 172.589844 256.546875 C 170.015625 255.667969 167.914062 252.75 167.847656 252.617188 L 167.304688 251.800781 L 168.253906 251.597656 C 168.386719 251.597656 171.503906 250.785156 173.605469 250.511719 C 175.910156 250.175781 189.464844 248.75 194.683594 248.546875 C 199.695312 248.34375 203.761719 246.308594 203.832031 244.003906 C 203.832031 242.917969 203.695312 242.375 203.355469 241.96875 C 202.476562 241.085938 200.101562 240.679688 195.628906 240.679688 C 189.191406 240.679688 180.179688 241.15625 175.367188 241.425781 C 174.214844 241.492188 173.265625 241.5625 172.792969 241.5625 C 170.285156 241.695312 165.066406 242.308594 165 242.308594 L 160.527344 242.851562 L 164.660156 241.019531 C 164.863281 240.949219 169.199219 238.984375 172.183594 238.644531 C 174.757812 238.375 181.941406 237.628906 193.054688 237.558594 C 198.476562 237.492188 201.933594 236.609375 203.289062 234.914062 C 203.964844 234.035156 204.101562 232.949219 203.761719 231.523438 C 203.222656 229.082031 201.050781 228.878906 196.308594 228.609375 C 195.765625 228.609375 195.222656 228.539062 194.613281 228.539062 C 189.394531 228.203125 178.6875 228.609375 175.164062 228.742188 L 174.621094 228.742188 C 171.640625 228.878906 165.746094 230.304688 165.675781 230.371094 L 164.863281 230.574219 L 164.863281 224.742188 L 165.269531 224.539062 C 165.609375 224.402344 173.265625 220.742188 180.585938 219.996094 C 186.480469 219.386719 189.53125 217.417969 189.53125 214.230469 C 189.53125 213.824219 189.464844 213.554688 189.191406 213.351562 C 188.378906 212.605469 185.941406 212.398438 181.601562 212.738281 C 178.351562 213.011719 167.640625 215.113281 162.019531 216.875 C 157.003906 218.4375 153.003906 222.503906 150.632812 224.945312 C 150.363281 225.21875 150.089844 225.488281 149.886719 225.691406 C 147.652344 227.929688 146.296875 231.253906 146.160156 234.78125 L 146.160156 234.914062 L 144.941406 237.628906 C 143.855469 240.070312 142.160156 243.867188 140.0625 248.546875 C 138.09375 259.328125 143.71875 265.976562 147.175781 268.960938 C 152.257812 273.164062 158.492188 274.65625 161.542969 273.636719 L 161.746094 274.25 Z M 163.984375 203.71875 L 184.246094 205.617188 L 184.855469 201.210938 L 162.832031 199.175781 L 162.355469 203.789062 L 163.984375 203.921875 Z M 175.164062 181.339844 C 178.757812 179.238281 183.027344 178.015625 187.972656 178.085938 L 190.820312 157.0625 C 184.992188 152.316406 177.332031 144.921875 173.132812 139.363281 C 171.777344 142.210938 172.65625 146.890625 173.808594 152.585938 C 174.285156 154.757812 174.691406 157.128906 175.097656 159.570312 C 175.164062 159.84375 175.234375 160.113281 175.234375 160.519531 C 176.316406 166.691406 176.722656 173.675781 175.164062 181.339844 Z M 174.691406 166.082031 C 172.929688 173.949219 167.980469 186.292969 162.222656 193.277344 C 163.371094 192.9375 164.457031 192.597656 165.542969 192.257812 C 167.234375 188.460938 169.945312 184.933594 173.539062 182.425781 C 174.960938 176.527344 175.097656 171.101562 174.691406 166.082031 Z M 165.203125 197.957031 L 184.992188 199.785156 L 187.296875 183.105469 C 185.738281 182.492188 184.921875 181.816406 184.855469 181.746094 L 185.738281 180.730469 C 185.738281 180.730469 186.347656 181.203125 187.5 181.746094 L 187.835938 179.507812 C 175.027344 179.304688 166.898438 188.460938 165.203125 197.957031 Z M 165.339844 205.347656 L 165.609375 214.300781 C 171.4375 212.875 178.824219 211.449219 181.46875 211.246094 C 182.210938 211.179688 182.890625 211.179688 183.5 211.113281 L 184.042969 207.042969 Z M 182.144531 221.082031 C 181.671875 221.148438 181.195312 221.214844 180.722656 221.285156 C 174.554688 221.894531 167.914062 224.8125 166.21875 225.554688 L 166.21875 228.8125 C 167.980469 228.40625 172.113281 227.457031 174.621094 227.386719 L 175.164062 227.386719 C 176.585938 227.320312 178.824219 227.253906 181.332031 227.183594 Z M 167.167969 272.554688 L 167.234375 275.875 C 169.472656 276.894531 181.671875 281.84375 199.359375 279.0625 L 211.285156 209.621094 L 192.714844 207.925781 L 190.210938 226.980469 C 191.835938 226.980469 193.394531 227.046875 194.613281 227.117188 C 195.222656 227.183594 195.765625 227.183594 196.308594 227.183594 C 200.847656 227.386719 204.167969 227.589844 204.984375 231.183594 C 205.390625 233.085938 205.1875 234.578125 204.238281 235.730469 C 202.609375 237.761719 198.953125 238.78125 192.988281 238.847656 C 181.941406 238.984375 174.824219 239.664062 172.25 239.933594 C 171.707031 240 171.097656 240.136719 170.421875 240.273438 C 171.234375 240.203125 172.046875 240.136719 172.65625 240.136719 C 173.132812 240.136719 174.082031 240.070312 175.234375 240 C 180.113281 239.730469 189.125 239.253906 195.5625 239.253906 C 200.644531 239.253906 203.085938 239.730469 204.238281 240.949219 C 205.050781 241.832031 205.1875 242.917969 205.117188 243.933594 C 205.050781 247.054688 200.578125 249.5625 194.683594 249.765625 C 189.191406 249.96875 175.707031 251.460938 173.742188 251.734375 C 172.386719 251.9375 170.625 252.34375 169.539062 252.617188 C 170.285156 253.429688 171.503906 254.71875 172.929688 255.191406 C 175.84375 255.800781 186.074219 257.089844 195.292969 255.191406 C 196.917969 254.851562 198.136719 255.597656 198.542969 257.089844 C 199.085938 259.328125 197.527344 262.378906 194.34375 263.332031 C 193.597656 263.535156 192.714844 263.738281 191.632812 263.941406 C 191.769531 264.347656 191.902344 264.753906 191.902344 265.230469 C 191.902344 267.195312 190.34375 268.753906 188.378906 268.753906 C 186.414062 268.753906 184.855469 267.195312 184.855469 265.230469 C 184.855469 265.09375 184.855469 265.027344 184.855469 264.890625 C 184.585938 264.957031 184.3125 264.957031 184.042969 265.027344 C 183.972656 266.925781 182.414062 268.417969 180.519531 268.417969 C 179.027344 268.417969 177.808594 267.46875 177.265625 266.179688 C 175.367188 266.652344 173.808594 267.195312 173.0625 267.804688 C 172.792969 268.214844 170.894531 270.449219 167.167969 272.554688 Z M 198.542969 183.375 C 197.597656 183.644531 196.714844 183.78125 195.902344 183.917969 L 193.734375 200.53125 L 212.910156 202.296875 C 212.640625 196.597656 210.402344 184.527344 196.375 180.59375 L 196.105469 182.492188 C 196.78125 182.359375 197.460938 182.222656 198.207031 182.019531 Z M 201.121094 180.933594 C 203.832031 179.78125 204.984375 179.101562 205.457031 178.695312 C 208.03125 176.59375 207.015625 167.914062 206.339844 164.183594 C 205.457031 164.113281 203.628906 163.910156 201.324219 163.503906 C 200.644531 163.371094 199.765625 163.03125 198.679688 162.488281 L 196.511719 179.238281 C 198.207031 179.714844 199.695312 180.324219 201.121094 180.933594 Z M 197.527344 154.417969 C 196.648438 154.621094 195.496094 154.484375 194.886719 154.417969 C 193.9375 154.28125 193.191406 153.875 193.125 153.875 C 193.125 153.875 193.328125 155.503906 194.546875 155.707031 C 194.886719 155.773438 195.292969 155.773438 195.699219 155.773438 C 196.242188 155.839844 197.527344 154.417969 197.527344 154.417969 Z M 192.988281 206.363281 L 212.980469 208.195312 L 212.980469 208.332031 L 215.082031 208.535156 L 215.554688 203.921875 L 193.597656 201.890625 Z M 358.816406 315.34375 C 358.476562 311.277344 356.105469 284.761719 350.074219 251.394531 C 344.992188 223.046875 332.726562 202.90625 322.898438 195.582031 C 318.019531 191.917969 308.667969 187.988281 299.046875 185.613281 C 298.300781 185.882812 297.078125 186.699219 294.84375 189.75 L 294.367188 190.429688 C 291.929688 193.820312 289.152344 197.683594 285.695312 199.652344 C 283.863281 200.667969 277.628906 203.71875 271.328125 200.398438 C 254.589844 218.097656 225.855469 249.019531 218.0625 259.941406 L 217.519531 260.753906 L 216.976562 259.941406 C 216.910156 259.871094 212.503906 253.359375 206.746094 244.476562 L 200.578125 280.214844 L 200.101562 280.285156 C 195.96875 280.960938 192.105469 281.234375 188.582031 281.234375 C 175.097656 281.234375 166.761719 277.097656 166.355469 276.894531 L 166.015625 276.691406 L 165.949219 273.230469 C 164.796875 273.84375 163.507812 274.382812 162.085938 274.859375 C 161.273438 275.128906 160.390625 275.265625 159.375 275.265625 C 155.445312 275.265625 150.292969 273.164062 146.296875 269.773438 C 142.566406 266.585938 136.605469 259.464844 138.707031 248.003906 L 139.382812 248.140625 L 138.773438 247.867188 C 140.875 243.1875 142.566406 239.324219 143.652344 236.882812 L 144.738281 234.441406 C 144.941406 230.574219 146.429688 227.046875 148.871094 224.605469 C 149.074219 224.402344 149.34375 224.132812 149.617188 223.859375 C 152.054688 221.351562 156.191406 217.148438 161.542969 215.453125 C 162.355469 215.179688 163.304688 214.910156 164.253906 214.707031 L 163.984375 205.28125 L 160.867188 205.007812 L 161.609375 197.683594 L 163.847656 197.886719 C 164.050781 196.53125 164.457031 195.175781 164.933594 193.886719 C 155.78125 196.667969 144.804688 200.398438 138.296875 204.667969 C 130.707031 208.804688 101.433594 267.265625 95.945312 307.75 C 99.332031 309.851562 126.304688 325.992188 173.199219 333.792969 C 213.929688 340.574219 277.5625 342.066406 358.816406 315.34375 Z M 379.417969 286.253906 C 379.417969 286.253906 386.667969 298.324219 390.601562 302.121094 C 387.074219 292.085938 388.566406 274.453125 389.582031 262.515625 C 389.921875 258.582031 390.191406 255.125 390.191406 253.023438 C 390.261719 245.222656 387.347656 237.289062 382.332031 231.253906 L 382.195312 231.117188 L 382.195312 230.914062 C 381.042969 219.589844 374.675781 214.230469 367.152344 208.875 C 359.496094 203.449219 355.765625 199.039062 355.5625 198.90625 L 355.429688 198.769531 L 355.359375 198.566406 C 355.023438 197.007812 354.75 195.3125 354.480469 193.75 C 354.074219 191.378906 353.667969 188.9375 353.125 186.628906 C 350.957031 177.542969 346.347656 169.203125 339.773438 162.488281 L 339.636719 162.351562 L 339.636719 162.148438 C 337.808594 145.601562 330.828125 138.277344 326.152344 133.460938 C 325.472656 132.785156 324.863281 132.105469 324.253906 131.429688 C 319.78125 126.410156 316.597656 121.457031 316.597656 121.390625 L 316.460938 121.1875 L 316.460938 120.984375 C 316.460938 120.710938 316.527344 120.441406 316.527344 120.171875 C 317.679688 109.589844 315.171875 101.925781 305.347656 85.855469 C 298.503906 74.734375 297.554688 65.917969 296.402344 55.746094 C 295.925781 51.539062 295.453125 47.132812 294.503906 42.25 C 292.742188 33.296875 286.441406 23.464844 277.5625 16.003906 C 270.109375 9.628906 257.097656 1.964844 238.121094 1.695312 C 216.503906 1.425781 197.1875 9.289062 182.007812 24.617188 C 185.804688 22.515625 190.277344 20.75 197.394531 21.160156 C 197.394531 21.160156 184.382812 24.753906 179.773438 27.535156 C 179.367188 27.804688 178.960938 28.007812 178.621094 28.28125 C 174.757812 30.722656 169.335938 38.996094 164.523438 46.25 C 160.730469 52.082031 157.070312 57.574219 154.359375 60.015625 C 155.105469 60.355469 156.257812 60.695312 157.476562 60.289062 C 159.578125 55.132812 167.371094 48.691406 167.371094 48.691406 C 167.304688 48.761719 160.460938 56.085938 158.628906 61.101562 C 157.953125 62.867188 157.003906 67.75 156.394531 70.800781 C 157.476562 69.511719 158.695312 68.222656 159.375 67.476562 C 159.511719 67.273438 159.714844 67.136719 159.917969 66.933594 C 163.984375 61.304688 170.964844 57.238281 170.964844 57.238281 C 170.894531 57.304688 164.863281 62.390625 160.867188 67.816406 C 160.867188 67.816406 160.664062 68.019531 160.324219 68.359375 C 157.070312 72.089844 155.648438 82.328125 156.121094 88.769531 C 157.75 85.789062 161.203125 80.972656 165.878906 74.597656 C 169.539062 69.648438 175.4375 63.203125 175.4375 63.203125 C 174.148438 65.714844 170.691406 70.394531 167.03125 75.410156 C 162.492188 81.652344 156.800781 89.382812 156.527344 91.484375 L 155.917969 96.367188 C 158.832031 96.027344 161.8125 95.214844 162.289062 95.078125 C 168.386719 91.957031 176.316406 77.515625 176.316406 77.515625 C 175.300781 79.957031 169.945312 91.621094 163.914062 95.6875 L 164.1875 95.824219 C 172.386719 96.636719 181.332031 88.230469 182.621094 80.972656 C 183.230469 77.648438 183.363281 75.277344 183.5 73.378906 C 183.566406 72.699219 183.566406 72.089844 183.636719 71.546875 C 184.246094 64.425781 186.753906 51.878906 196.445312 48.554688 C 204.238281 45.84375 210.199219 50.660156 212.910156 53.507812 C 212.777344 52.488281 212.574219 51.539062 212.4375 50.589844 C 212.234375 49.167969 212.03125 47.878906 211.828125 46.65625 C 211.828125 46.65625 213.183594 51.132812 214.265625 55 C 214.46875 55.269531 214.605469 55.40625 214.605469 55.472656 L 214.402344 55.609375 C 214.742188 56.828125 215.011719 57.914062 215.214844 58.796875 L 215.417969 59.609375 C 217.585938 70.054688 221.789062 83.957031 234.054688 87.414062 C 227.886719 81.242188 225.921875 67.816406 225.921875 67.816406 C 227.617188 73.039062 232.902344 86.871094 236.832031 87.957031 L 236.902344 87.957031 L 237.035156 88.027344 C 240.019531 89.925781 244.558594 90.804688 247.335938 90.128906 C 241.578125 84.429688 236.222656 70.9375 236.019531 70.324219 C 236.019531 70.324219 243 84.429688 248.761719 89.585938 L 249.101562 89.925781 C 252.015625 92.773438 256.148438 93.179688 258.179688 93.246094 C 256.757812 91.28125 255.742188 88.769531 255.539062 88.230469 C 249.371094 81.109375 244.695312 62.324219 244.492188 61.507812 C 244.492188 61.507812 250.660156 80.632812 256.621094 87.414062 C 256.691406 87.550781 266.042969 98.402344 275.867188 100.707031 L 275.867188 100.640625 C 277.699219 101.046875 279.390625 101.113281 280.949219 100.84375 C 282.375 100.4375 283.660156 100.027344 284.476562 99.824219 C 282.847656 96.910156 281.425781 91.484375 279.730469 84.839844 C 278.375 79.414062 276.816406 73.445312 274.851562 67.679688 C 272.34375 60.222656 265.769531 47.539062 265.769531 47.539062 C 273.835938 56.21875 277.832031 71.886719 281.019531 84.5 C 282.78125 91.484375 284.339844 97.453125 286.035156 99.894531 L 286.574219 100.707031 L 285.625 100.976562 C 285.625 100.976562 283.660156 101.519531 281.222656 102.265625 L 281.152344 102.265625 C 280.476562 102.402344 279.730469 102.46875 278.984375 102.46875 C 278.78125 102.46875 278.578125 102.46875 278.308594 102.46875 C 279.730469 103.960938 281.695312 106.605469 282.171875 110.269531 C 282.710938 114.339844 281.289062 118.476562 277.902344 122.679688 C 273.359375 128.375 267.53125 131.835938 262.855469 134.683594 C 259.875 136.445312 257.367188 138.007812 256.148438 139.566406 C 253.164062 143.363281 251.269531 169.609375 254.519531 173.746094 C 254.929688 174.289062 255.671875 174.832031 256.621094 175.371094 L 256.960938 175.574219 L 256.960938 175.914062 C 256.960938 176.050781 258.179688 192.054688 271.394531 198.972656 C 277.222656 202.296875 283.1875 199.449219 284.882812 198.496094 C 288.066406 196.667969 290.777344 192.9375 293.148438 189.683594 L 293.625 189.003906 C 296.265625 185.339844 297.621094 184.59375 298.707031 184.257812 L 298.910156 184.1875 L 299.113281 184.257812 C 309.074219 186.765625 318.496094 190.699219 323.644531 194.496094 C 332.996094 201.480469 345.804688 220.46875 351.363281 251.125 C 357.257812 283.742188 359.628906 309.785156 360.035156 314.871094 C 365.117188 313.175781 370.269531 311.410156 375.417969 309.511719 C 372.097656 302.257812 373.65625 288.761719 375.082031 275.671875 C 376.367188 264.28125 376.570312 247.9375 376.570312 247.9375 C 378.945312 253.226562 377.722656 264.210938 376.4375 275.808594 C 374.945312 288.761719 373.453125 302.121094 376.707031 309.039062 C 381.113281 307.410156 385.585938 305.714844 390.125 303.882812 C 386.128906 301.644531 380.097656 294.390625 379.417969 286.253906 Z M 271.9375 194.359375 C 272.207031 194.632812 272.207031 195.105469 271.9375 195.378906 C 271.800781 195.582031 271.53125 195.648438 271.328125 195.648438 C 271.191406 195.648438 271.058594 195.582031 270.921875 195.515625 C 265.703125 192.257812 261.839844 185.75 260.621094 178.015625 L 260.417969 176.796875 L 261.5 177.273438 C 262.179688 177.542969 262.992188 177.8125 263.941406 178.085938 C 263.671875 176.253906 263.464844 174.289062 263.332031 172.117188 C 262.925781 167.234375 262.449219 161.742188 260.6875 157.535156 C 260.6875 157.535156 264.078125 161.945312 264.6875 171.980469 C 264.820312 174.492188 265.09375 176.863281 265.433594 178.832031 C 265.636719 179.507812 268.277344 190.429688 271.9375 194.359375 Z M 268.820312 192.125 C 266.378906 187.578125 264.6875 181.273438 264.28125 179.644531 C 263.535156 179.441406 262.789062 179.238281 262.179688 179.035156 C 263.261719 184.324219 265.636719 189.003906 268.820312 192.125 Z M 167.371094 101.792969 C 167.371094 101.792969 170.964844 101.453125 176.65625 101.183594 C 181.601562 100.976562 191.496094 102.265625 195.359375 108.234375 C 195.359375 108.234375 195.359375 108.234375 195.359375 108.300781 C 195.902344 109.183594 196.375 110.203125 196.648438 111.285156 C 196.375 110.8125 196.039062 110.335938 195.628906 109.929688 C 196.105469 114.132812 195.292969 116.710938 194.816406 117.796875 C 195.5625 117.863281 195.96875 117.933594 195.96875 117.933594 C 195.96875 117.933594 194.75 118.746094 193.191406 118.746094 C 191.496094 118.746094 189.191406 118.746094 186.820312 118.339844 C 180.722656 117.320312 178.214844 114.609375 178.214844 114.609375 C 178.214844 114.609375 180.855469 115.492188 183.566406 116.238281 C 182.210938 114.132812 180.246094 109.929688 181.804688 104.4375 C 177.332031 104.03125 172.996094 104.574219 170.691406 106.132812 C 167.777344 105.25 167.371094 101.792969 167.371094 101.792969 Z M 183.433594 105.929688 C 183.433594 109.589844 186.277344 112.574219 189.734375 112.574219 C 191.496094 112.574219 193.191406 111.761719 194.34375 110.40625 C 194.273438 109.792969 194.207031 109.183594 194.070312 108.507812 C 191.359375 106.472656 187.429688 105.183594 183.566406 104.574219 C 183.433594 105.046875 183.433594 105.523438 183.433594 105.929688 Z M 182.621094 108.914062 C 182.824219 113.320312 185.195312 116.238281 185.601562 116.644531 C 186.210938 116.78125 186.753906 116.847656 187.296875 116.914062 C 189.597656 117.1875 191.769531 117.457031 193.460938 117.660156 L 193.394531 117.660156 C 193.394531 117.660156 194.480469 115.898438 194.480469 112.234375 C 193.460938 113.050781 192.308594 113.59375 191.089844 113.796875 C 190.953125 114.40625 190.617188 115.21875 189.53125 115.421875 C 188.109375 115.695312 187.023438 114.472656 186.886719 113.320312 C 184.921875 112.507812 183.363281 110.878906 182.621094 108.914062 Z M 246.117188 100.097656 L 248.558594 99.351562 L 247.269531 103.828125 C 247.269531 103.828125 243.339844 102.605469 238.054688 102.46875 C 239.003906 104.707031 239.476562 108.371094 239.136719 111.421875 C 239.003906 112.304688 238.800781 113.117188 238.527344 113.796875 C 240.5625 112.980469 242.1875 112.234375 242.1875 112.234375 C 242.1875 112.234375 240.289062 114.269531 237.035156 115.828125 C 236.96875 115.898438 236.902344 115.898438 236.832031 115.964844 L 236.832031 115.898438 C 235.886719 116.371094 234.800781 116.78125 233.648438 117.050781 C 230.9375 117.730469 228.5 118 226.53125 118 C 223.957031 118 222.195312 117.050781 222.195312 117.050781 C 222.195312 117.050781 223.824219 117.117188 226.328125 116.847656 C 225.042969 115.21875 224.230469 112.304688 224.160156 109.792969 C 224.09375 107.964844 224.296875 106.335938 224.769531 105.046875 C 221.652344 106.605469 218.808594 109.046875 216.570312 112.644531 C 217.113281 106.539062 223.414062 96.910156 246.117188 100.097656 Z M 225.855469 106.335938 C 226.667969 108.574219 228.769531 109.996094 231.140625 109.996094 C 234.121094 109.996094 237.035156 106.945312 237.035156 103.691406 C 236.902344 103.214844 236.699219 102.742188 236.496094 102.402344 C 233.378906 102.46875 229.988281 102.878906 226.734375 104.164062 C 226.328125 104.777344 226.058594 105.523438 225.855469 106.335938 Z M 237.714844 106.742188 C 236.96875 108.300781 235.75 109.660156 234.328125 110.472656 C 234.460938 111.21875 234.53125 112.507812 233.308594 112.914062 C 231.820312 113.457031 230.394531 112.4375 230.191406 111.285156 C 228.296875 111.015625 226.601562 110.066406 225.515625 108.574219 C 225.515625 108.980469 225.515625 109.386719 225.515625 109.792969 C 225.652344 112.980469 226.804688 116.035156 228.089844 116.710938 C 229.378906 116.574219 230.800781 116.304688 232.292969 115.964844 C 233.308594 115.761719 234.800781 115.21875 236.359375 114.609375 C 237.035156 114.066406 237.511719 112.847656 237.714844 111.21875 C 237.917969 109.792969 237.917969 108.234375 237.714844 106.742188 Z M 267.398438 80.90625 C 269.769531 87.550781 272.546875 95.078125 275.394531 97.046875 C 275.394531 97.046875 270.921875 86.601562 268.683594 80.429688 C 267.195312 76.292969 265.90625 72.699219 264.820312 71.207031 C 264.753906 71.207031 265.972656 77.039062 267.398438 80.90625 Z M 242.253906 28.210938 C 235.886719 25.5 228.160156 23.804688 219.214844 24.820312 C 219.214844 24.820312 235.816406 26.855469 242.050781 29.566406 C 254.113281 34.789062 262.042969 43.132812 262.042969 43.132812 C 261.90625 42.996094 254.792969 33.636719 242.253906 28.210938 Z M 215.757812 32.824219 C 215.554688 33.296875 215.757812 36.890625 216.164062 40.417969 C 216.433594 43.0625 216.84375 45.640625 217.25 46.859375 C 217.25 46.859375 217.789062 42.859375 217.519531 40.484375 C 217.179688 37.164062 215.757812 32.824219 215.757812 32.824219 Z M 219.621094 29.566406 C 219.621094 29.566406 222.601562 33.230469 226.398438 37.230469 C 228.160156 39.128906 232.496094 43.199219 232.496094 43.199219 C 231.074219 40.621094 229.3125 38.382812 227.480469 36.484375 C 223.6875 32.28125 219.890625 29.769531 219.621094 29.566406 Z M 217.859375 12.546875 C 213.386719 16.410156 211.894531 20.210938 211.828125 20.480469 C 211.828125 20.480469 214.46875 17.429688 218.535156 13.765625 C 221.179688 11.460938 224.839844 9.019531 230.058594 7.324219 C 230.125 7.324219 220.570312 10.171875 217.859375 12.546875 Z M 252.148438 15.800781 C 252.082031 15.800781 251.945312 15.734375 251.878906 15.734375 C 252.082031 15.800781 252.148438 15.800781 252.148438 15.800781 Z M 251.878906 15.734375 C 251.539062 15.664062 251.132812 15.53125 250.792969 15.460938 C 251.269531 15.597656 251.605469 15.734375 251.878906 15.734375 Z M 221.585938 20.003906 C 223.824219 18.921875 229.3125 16.613281 236.019531 15.394531 C 240.5625 14.582031 245.710938 14.378906 250.792969 15.460938 C 247.8125 14.785156 240.628906 13.292969 236.832031 13.902344 C 229.445312 14.988281 221.519531 20.003906 221.519531 20.003906 Z M 310.429688 142.277344 C 312.125 153.46875 315.105469 162.691406 322.832031 171.371094 C 322.832031 171.371094 315.445312 157.945312 313.546875 150.753906 C 311.71875 143.703125 310.90625 135.902344 310.023438 126.816406 C 309.617188 123.085938 309.277344 119.152344 308.734375 115.015625 C 307.109375 101.316406 302.296875 92.570312 298.027344 84.839844 C 294.503906 78.464844 289.355469 65.984375 289.355469 65.984375 C 290.167969 73.378906 293.421875 79.277344 296.875 85.449219 C 301.078125 93.042969 305.820312 101.65625 307.378906 115.085938 C 307.855469 119.222656 308.261719 123.085938 308.667969 126.882812 C 308.9375 129.324219 309.140625 131.699219 309.414062 134.003906 C 309.617188 135.566406 309.347656 138.546875 309.074219 142.277344 C 308.261719 152.859375 306.90625 170.558594 313.34375 182.898438 C 313.34375 182.898438 310.292969 169.8125 309.886719 163.03125 C 309.414062 155.367188 309.957031 147.90625 310.429688 142.347656 C 310.429688 142.414062 310.429688 142.347656 310.429688 142.277344 Z M 341.398438 194.699219 C 340.859375 203.449219 346.210938 211.179688 351.496094 218.503906 C 361.527344 232.40625 363.222656 241.289062 363.222656 241.289062 C 363.425781 232.136719 357.527344 224.066406 352.582031 217.691406 C 343.773438 206.160156 341.398438 194.699219 341.398438 194.699219 Z M 152.257812 169.539062 C 151.511719 167.507812 150.496094 165.402344 149.683594 163.640625 L 149.480469 163.234375 C 147.378906 158.894531 145.210938 154.417969 144.871094 149.601562 C 144.667969 146.890625 145.144531 144.378906 146.226562 142.414062 L 146.972656 140.988281 L 147.449219 142.550781 C 148.261719 145.195312 149.34375 147.769531 150.363281 150.28125 C 150.902344 151.5 151.378906 152.789062 151.851562 154.011719 C 153.070312 157.199219 154.222656 160.65625 154.222656 164.25 C 154.222656 165.945312 153.953125 167.710938 153.480469 169.472656 L 152.9375 171.507812 Z M 150.902344 163.097656 C 151.511719 164.320312 152.125 165.675781 152.734375 167.03125 C 152.867188 166.082031 152.9375 165.199219 152.9375 164.320312 C 152.9375 160.929688 151.851562 157.671875 150.632812 154.554688 C 150.160156 153.332031 149.617188 152.042969 149.140625 150.824219 C 148.328125 148.855469 147.515625 146.753906 146.769531 144.71875 C 146.296875 146.144531 146.160156 147.773438 146.296875 149.535156 C 146.632812 154.144531 148.734375 158.488281 150.769531 162.691406 Z M 335.84375 157.199219 L 336.25 159.097656 L 334.757812 157.875 C 333.808594 157.128906 332.863281 156.382812 331.914062 155.636719 C 327.980469 152.519531 323.847656 149.261719 320.867188 145.125 C 316.800781 139.429688 316.121094 131.359375 316.257812 125.59375 L 316.324219 123.222656 L 317.546875 125.257812 C 319.578125 128.648438 321.816406 131.835938 324.390625 134.683594 C 324.863281 135.226562 325.339844 135.769531 325.8125 136.308594 C 327.167969 137.734375 328.523438 139.226562 329.675781 140.921875 C 332.320312 144.652344 333.675781 148.925781 334.625 152.246094 C 335.03125 153.738281 335.4375 155.433594 335.84375 157.199219 Z M 334.082031 155.570312 C 333.808594 154.484375 333.539062 153.46875 333.269531 152.449219 C 332.386719 149.261719 331.03125 145.058594 328.523438 141.53125 C 327.441406 139.972656 326.085938 138.480469 324.796875 137.054688 C 324.324219 136.515625 323.78125 135.972656 323.304688 135.429688 C 321.207031 133.054688 319.308594 130.546875 317.613281 127.832031 C 317.679688 133.125 318.628906 139.566406 321.949219 144.246094 C 324.796875 148.3125 328.863281 151.433594 332.726562 154.484375 C 333.199219 154.890625 333.675781 155.230469 334.082031 155.570312 Z M 377.792969 225.082031 L 379.214844 227.929688 L 376.773438 225.894531 C 375.285156 224.675781 373.65625 223.453125 372.097656 222.300781 C 367.421875 218.773438 362.542969 215.179688 359.496094 210.09375 C 359.085938 209.347656 358.679688 208.601562 358.207031 207.722656 L 357.054688 205.210938 L 359.289062 206.90625 C 360.511719 207.855469 361.796875 208.804688 363.019531 209.6875 C 367.085938 212.738281 371.285156 215.859375 374.539062 219.859375 C 375.757812 221.417969 376.84375 223.183594 377.792969 225.082031 Z M 374.878906 222.707031 C 374.402344 222.03125 373.929688 221.351562 373.386719 220.675781 C 370.269531 216.808594 366.136719 213.757812 362.136719 210.773438 C 361.730469 210.5 361.324219 210.164062 360.917969 209.890625 C 363.832031 214.503906 368.238281 217.824219 372.914062 221.285156 C 373.523438 221.691406 374.199219 222.164062 374.878906 222.707031 Z M 287.253906 182.085938 C 289.625 182.359375 292.132812 182.765625 294.707031 183.238281 L 294.574219 184.59375 C 293.21875 184.59375 290.507812 187.851562 288.949219 189.816406 C 288.472656 190.359375 288.066406 190.902344 287.726562 191.308594 C 287.523438 191.511719 287.320312 191.851562 287.050781 192.191406 C 285.832031 193.75 284 196.054688 281.222656 197.140625 L 281.085938 197.210938 L 280.882812 197.210938 C 270.445312 195.71875 267.328125 180.59375 267.195312 179.917969 L 266.992188 178.898438 L 268.007812 179.101562 C 269.90625 179.507812 272.003906 179.847656 274.175781 180.253906 C 271.394531 175.847656 272.34375 168.183594 273.359375 159.4375 C 273.429688 158.757812 273.496094 158.078125 273.632812 157.332031 C 274.175781 151.839844 264.550781 134.546875 264.414062 134.410156 C 264.414062 134.410156 271.871094 144.992188 274.175781 152.449219 C 274.851562 144.992188 274.105469 129.9375 274.105469 129.9375 C 277.15625 139.226562 275.867188 150.078125 274.785156 159.640625 C 273.699219 168.929688 272.75 177 276.207031 180.664062 C 279.730469 181.070312 283.660156 181.613281 287.253906 182.085938 Z M 275.9375 193.546875 L 285.761719 183.238281 C 280.003906 182.492188 273.765625 181.613281 268.683594 180.59375 C 269.363281 183.171875 271.464844 189.953125 275.9375 193.546875 Z M 287.457031 183.441406 L 277.089844 194.292969 C 278.171875 194.972656 279.460938 195.515625 280.816406 195.71875 C 283.1875 194.699219 284.8125 192.664062 285.898438 191.242188 C 286.167969 190.902344 286.441406 190.5625 286.644531 190.359375 C 286.980469 189.953125 287.390625 189.476562 287.863281 188.9375 C 289.488281 186.96875 290.980469 185.207031 292.335938 184.1875 C 290.710938 183.917969 289.015625 183.644531 287.457031 183.441406 Z M 219.6875 96.773438 C 229.988281 94.46875 239.679688 93.722656 241.578125 94.128906 C 243.476562 94.535156 245.441406 94.605469 245.441406 94.605469 C 245.441406 94.605469 240.898438 90.738281 237.375 90.535156 C 233.851562 90.332031 215.148438 93.316406 215.148438 93.316406 C 215.148438 93.316406 216.027344 96.09375 219.6875 96.773438 Z M 219.6875 96.773438 " fill-opacity="1" fill-rule="nonzero"/></g></svg>